<?xml version="1.0" standalone="no"?>
<!DOCTYPE svg PUBLIC "-//W3C//DTD SVG 20010904//EN"
 "http://www.w3.org/TR/2001/REC-SVG-20010904/DTD/svg10.dtd">
<svg version="1.0" xmlns="http://www.w3.org/2000/svg"
 width="398.000000pt" height="398.000000pt" viewBox="0 0 398.000000 398.000000"
 preserveAspectRatio="xMidYMid meet">
<metadata>
Created by potrace 1.14, written by Peter Selinger 2001-2017
</metadata>
<g transform="translate(0.000000,398.000000) scale(0.100000,-0.100000)"
fill="#000000" stroke="none">
<path d="M1790 3969 c-412 -42 -826 -227 -1133 -507 -341 -311 -552 -701 -634
-1167 -24 -139 -24 -480 0 -620 150 -866 805 -1523 1657 -1660 130 -21 500
-21 630 0 414 67 785 256 1090 556 77 76 99 104 89 110 -11 7 -10 9 5 9 21 0
22 1 89 91 68 91 80 108 101 141 l18 29 -28 -6 c-55 -11 -214 -14 -214 -4 0 5
9 9 20 9 11 0 20 5 20 11 0 8 4 8 14 0 10 -8 38 -9 107 -1 51 6 94 12 95 13
75 107 222 493 229 603 1 17 5 35 8 40 3 5 8 32 12 59 3 28 8 61 11 73 3 15 1
21 -6 17 -6 -4 -10 6 -10 25 0 20 4 29 11 24 15 -9 6 440 -11 524 -14 70 -23
75 -22 11 1 -23 -3 -38 -8 -33 -15 16 -39 84 -30 84 5 0 7 7 4 15 -3 8 -1 30
6 49 9 29 8 46 -4 90 l-16 55 -25 -25 c-14 -14 -25 -28 -25 -33 0 -4 -28 -15
-61 -26 -42 -12 -63 -24 -66 -36 -3 -11 -10 -19 -17 -20 -6 0 -2 -4 9 -9 26
-10 28 -9 -170 -60 -88 -23 -164 -45 -170 -51 -5 -5 -17 -9 -28 -9 -10 0 -16
-4 -12 -10 4 -6 16 -6 33 1 14 6 58 9 97 8 55 -2 73 -6 83 -21 10 -14 26 -18
78 -18 35 0 64 -3 64 -7 -1 -19 -18 -28 -60 -31 -24 -2 -47 -8 -51 -14 -4 -6
-12 -7 -18 -4 -14 9 -14 -7 0 -21 7 -7 0 -13 -27 -18 -21 -4 -51 -13 -66 -21
-15 -8 -36 -14 -48 -14 -11 0 -20 -4 -20 -10 0 -5 -7 -7 -15 -4 -12 5 -15 -2
-15 -30 0 -35 -6 -41 -38 -37 -9 2 -11 -6 -6 -26 8 -31 23 -55 33 -49 8 4 41
-31 35 -37 -4 -4 47 -18 78 -21 3 -1 10 -4 14 -8 15 -15 -144 -8 -248 11 -143
27 -203 48 -244 86 -51 48 -43 104 23 168 45 42 232 131 364 173 105 33 119
41 119 60 0 32 50 70 158 122 86 40 116 48 220 55 18 1 10 30 -44 157 -49 118
-142 278 -226 391 -422 567 -1106 869 -1808 798z m-645 -269 c-3 -5 -11 -10
-16 -10 -6 0 -7 5 -4 10 3 6 11 10 16 10 6 0 7 -4 4 -10z m1165 -35 c14 -19
14 -19 -2 -6 -10 7 -18 18 -18 24 0 6 1 8 3 6 1 -2 9 -13 17 -24z m-1224 -54
c-12 -13 -14 -21 -6 -26 11 -7 4 -25 -11 -25 -5 0 -7 8 -5 18 6 30 18 52 29
52 5 0 2 -9 -7 -19z m1009 -31 c3 -5 -3 -10 -15 -10 -12 0 -18 5 -15 10 3 6
10 10 15 10 5 0 12 -4 15 -10z m155 0 c-8 -5 -19 -10 -25 -10 -5 0 -3 5 5 10
8 5 20 10 25 10 6 0 3 -5 -5 -10z m888 -55 c-3 -3 -9 2 -12 12 -6 14 -5 15 5
6 7 -7 10 -15 7 -18z m-2138 1 c0 -3 -4 -8 -10 -11 -5 -3 -10 -1 -10 4 0 6 5
11 10 11 6 0 10 -2 10 -4z m1162 -58 c-6 -23 -19 -32 -27 -19 -3 5 1 16 8 23
8 7 12 22 10 33 -3 20 -3 20 5 0 5 -11 7 -28 4 -37z m-312 16 c0 -8 -19 -13
-24 -6 -3 5 1 9 9 9 8 0 15 -2 15 -3z m-265 -14 c-3 -5 -12 -10 -18 -10 -7 0
-6 4 3 10 19 12 23 12 15 0z m315 -31 c0 -6 -6 -9 -14 -6 -8 3 -17 -1 -20 -10
-4 -9 -9 -13 -13 -10 -8 9 17 37 33 37 8 0 14 -5 14 -11z m-822 -34 c-3 -3 -9
2 -12 12 -6 14 -5 15 5 6 7 -7 10 -15 7 -18z m162 21 c0 -11 -19 -15 -25 -6
-3 5 1 10 9 10 9 0 16 -2 16 -4z m910 -6 c0 -5 -2 -10 -4 -10 -3 0 -8 5 -11
10 -3 6 -1 10 4 10 6 0 11 -4 11 -10z m85 -10 c-10 -11 -22 -20 -28 -20 -5 0
1 9 14 20 31 25 37 25 14 0z m-402 -5 c-3 -9 -8 -14 -10 -11 -3 3 -2 9 2 15 9
16 15 13 8 -4z m-30 -22 c-3 -7 -6 -13 -8 -13 -2 0 -5 6 -8 13 -3 8 1 14 8 14
7 0 11 -6 8 -14z m239 -2 c-4 -10 -1 -12 8 -6 9 6 11 4 5 -4 -6 -10 -11 -9
-23 3 -14 14 -17 14 -29 -2 -13 -15 -13 -15 -4 3 11 24 52 29 43 6z m-175 3
c-3 -3 -12 -4 -19 -1 -8 3 -5 6 6 6 11 1 17 -2 13 -5z m-457 -14 c0 -5 -5 -10
-11 -10 -5 0 -7 5 -4 10 3 6 8 10 11 10 2 0 4 -4 4 -10z m423 -3 c3 -7 -3 -13
-14 -13 -13 0 -15 3 -7 13 6 7 12 13 13 13 2 0 5 -6 8 -13z m-1043 -18 c0 -5
-7 -9 -15 -9 -9 0 -12 6 -9 15 6 15 24 11 24 -6z m984 13 c2 -4 -5 -9 -17 -9
-17 -2 -19 0 -7 7 18 12 18 12 24 2z m336 -2 c0 -5 -5 -10 -11 -10 -5 0 -7 5
-4 10 3 6 8 10 11 10 2 0 4 -4 4 -10z m-614 -16 c-9 -8 -14 -20 -11 -25 4 -5
1 -9 -4 -9 -14 0 -14 6 -1 31 6 10 15 19 21 19 6 0 3 -7 -5 -16z m438 1 c-4
-8 -8 -15 -10 -15 -2 0 -4 7 -4 15 0 8 4 15 10 15 5 0 7 -7 4 -15z m236 0 c0
-8 -7 -15 -15 -15 -13 0 -14 3 -3 15 16 18 18 18 18 0z m77 9 c-3 -3 -12 -4
-19 -1 -8 3 -5 6 6 6 11 1 17 -2 13 -5z m-566 -17 c-6 -8 -8 -17 -4 -21 4 -4
0 -4 -10 0 -17 6 -17 7 0 20 23 17 28 18 14 1z m199 9 c0 -2 -7 -7 -16 -10 -8
-3 -12 -2 -9 4 6 10 25 14 25 6z m323 -11 c-3 -9 -8 -14 -10 -11 -3 3 -2 9 2
15 9 16 15 13 8 -4z m-953 1 c0 -3 -4 -8 -10 -11 -5 -3 -10 -1 -10 4 0 6 5 11
10 11 6 0 10 -2 10 -4z m577 -2 c-3 -3 -12 -4 -19 -1 -8 3 -5 6 6 6 11 1 17
-2 13 -5z m-287 -20 c0 -8 -5 -12 -10 -9 -6 4 -8 11 -5 16 9 14 15 11 15 -7z
m26 7 c-4 -5 -1 -11 6 -13 8 -3 8 -9 1 -23 -10 -17 -11 -17 -17 3 -7 20 -1 42
10 42 3 0 3 -4 0 -9z m234 -17 c0 -8 -5 -14 -12 -14 -6 0 -8 3 -5 7 4 3 2 12
-5 20 -8 11 -7 12 6 7 9 -3 16 -12 16 -20z m120 5 c0 -11 -27 -12 -34 0 -3 4
-3 11 0 14 8 8 34 -3 34 -14z m102 4 c-6 -2 -10 -9 -7 -13 3 -5 1 -11 -5 -15
-5 -3 -10 0 -10 8 0 17 10 27 24 26 6 0 5 -3 -2 -6z m214 -28 c-3 -8 -11 -15
-18 -14 -10 0 -10 2 0 6 6 2 12 14 13 26 0 12 3 16 6 9 3 -7 2 -19 -1 -27z
m398 11 c-3 -9 -10 -16 -15 -16 -6 0 -5 9 1 21 13 24 24 20 14 -5z m-1480 6
c3 -5 -1 -9 -9 -9 -8 0 -15 4 -15 9 0 4 4 8 9 8 6 0 12 -4 15 -8z m603 2 c-3
-3 -12 -4 -19 -1 -8 3 -5 6 6 6 11 1 17 -2 13 -5z m-87 -8 c0 -2 -7 -7 -16
-10 -8 -3 -12 -2 -9 4 6 10 25 14 25 6z m394 -9 c-3 -8 -12 -14 -21 -14 -13 0
-13 2 3 14 10 7 19 13 21 13 1 0 0 -6 -3 -13z m101 3 c3 -5 1 -10 -4 -10 -6 0
-11 5 -11 10 0 6 2 10 4 10 3 0 8 -4 11 -10z m202 -22 c-3 -7 -5 -2 -5 12 0
14 2 19 5 13 2 -7 2 -19 0 -25z m-1082 12 c3 -5 2 -10 -4 -10 -5 0 -13 5 -16
10 -3 6 -2 10 4 10 5 0 13 -4 16 -10z m99 -9 c3 -5 -1 -11 -9 -14 -9 -4 -12
-1 -8 9 6 16 10 17 17 5z m76 -6 c0 -8 -2 -15 -4 -15 -2 0 -6 7 -10 15 -3 8
-1 15 4 15 6 0 10 -7 10 -15z m55 5 c19 -8 19 -9 -2 -9 -12 -1 -25 4 -28 9 -7
12 2 12 30 0z m395 5 c0 -2 -10 -9 -22 -15 -22 -11 -22 -10 -4 4 21 17 26 19
26 11z m-485 -15 c3 -5 1 -10 -4 -10 -6 0 -11 5 -11 10 0 6 2 10 4 10 3 0 8
-4 11 -10z m231 -10 c8 0 11 -6 8 -15 -6 -15 -25 -21 -23 -7 3 18 -2 22 -20
12 -14 -7 -22 -7 -27 2 -4 7 -3 8 4 4 7 -4 12 -2 12 4 0 6 5 8 10 5 6 -3 10 0
11 7 0 10 2 10 6 1 2 -7 11 -13 19 -13z m204 16 c0 -2 -7 -6 -15 -10 -8 -3
-15 -1 -15 4 0 6 7 10 15 10 8 0 15 -2 15 -4z m250 -15 c0 -10 -7 -21 -15 -24
-12 -5 -12 -2 -3 18 13 30 18 31 18 6z m36 4 c-1 -8 -6 -18 -11 -22 -4 -4 -5
-2 -1 5 4 7 2 12 -6 12 -9 0 -9 3 2 10 19 12 19 13 16 -5z m115 -8 c-10 -9
-11 -8 -5 6 3 10 9 15 12 12 3 -3 0 -11 -7 -18z m-1076 4 c3 -5 2 -12 -3 -15
-5 -3 -9 1 -9 9 0 17 3 19 12 6z m49 -7 c3 -8 2 -12 -4 -9 -6 3 -10 10 -10 16
0 14 7 11 14 -7z m490 -1 c-5 -15 -3 -15 10 1 20 25 21 8 1 -18 -8 -11 -15
-14 -15 -7 0 7 -5 9 -10 6 -8 -5 -7 -12 2 -23 12 -15 11 -16 -4 -4 -16 13 -16
16 -1 38 18 28 24 31 17 7z m310 5 c-3 -4 -9 -8 -15 -8 -5 0 -9 4 -9 8 0 5 7
9 15 9 8 0 12 -4 9 -9z m736 5 c0 -5 -11 -8 -24 -8 -13 0 -22 3 -19 8 2 4 13
7 24 7 10 0 19 -3 19 -7z m-77 -9 c-7 -3 -9 -13 -6 -22 4 -14 3 -14 -5 -2 -12
16 -7 30 11 29 9 0 9 -2 0 -5z m-1838 -14 c3 -5 1 -10 -4 -10 -6 0 -11 5 -11
10 0 6 2 10 4 10 3 0 8 -4 11 -10z m161 -28 c-15 -15 -15 -15 -4 10 7 15 15
23 17 17 2 -6 -4 -18 -13 -27z m331 21 c9 -4 14 -2 10 3 -3 6 4 11 16 11 17 2
19 0 7 -7 -13 -9 -13 -10 0 -10 13 0 13 -1 0 -10 -13 -9 -13 -11 -1 -19 18
-12 43 -3 34 13 -3 6 3 2 14 -9 18 -18 18 -21 4 -26 -9 -4 -18 -2 -20 3 -2 5
-19 -5 -39 -24 -19 -18 -32 -28 -28 -21 3 6 2 14 -4 18 -5 3 -10 12 -10 18 0
8 3 8 9 -1 11 -17 22 -17 32 0 5 8 1 17 -14 25 -14 8 -17 12 -7 13 13 0 13 2
0 9 -19 13 -31 4 -23 -16 4 -11 3 -14 -5 -9 -7 4 -12 2 -12 -4 0 -6 -10 -14
-21 -18 -20 -8 -20 -9 -5 -25 10 -9 18 -26 19 -37 1 -11 3 -20 6 -20 2 0 24
17 49 37 25 21 57 39 71 41 42 4 53 11 48 27 -4 9 -1 12 7 9 23 -9 13 -33 -16
-40 -21 -4 -28 -10 -24 -21 3 -8 1 -24 -5 -36 -9 -18 -9 -20 1 -10 14 13 43 6
34 -8 -3 -5 1 -6 9 -3 8 3 18 1 22 -5 3 -7 -2 -11 -14 -11 -12 0 -21 -6 -22
-12 0 -10 -2 -10 -5 -1 -3 7 -12 9 -20 6 -7 -3 -11 -9 -8 -14 8 -13 44 -11 44
2 0 7 10 9 26 5 19 -5 25 -3 22 6 -3 7 5 18 16 23 12 6 22 16 22 23 1 7 3 15
4 20 1 4 2 10 1 15 0 4 6 7 16 7 15 0 15 -1 0 -18 -15 -16 -13 -18 24 -30 29
-9 45 -9 60 -2 10 6 25 8 31 4 6 -4 8 -3 4 4 -3 6 -1 14 5 18 8 4 9 3 5 -4 -4
-7 -3 -12 3 -12 6 0 15 9 21 20 6 11 16 20 23 19 9 0 9 -2 0 -6 -7 -2 -13 -12
-13 -20 0 -10 6 -13 16 -9 8 3 12 2 9 -4 -8 -13 1 -13 25 0 18 10 18 8 5 -17
-8 -16 -12 -36 -9 -45 6 -21 -31 -34 -51 -18 -20 16 -19 41 0 34 16 -6 19 4 9
30 -8 22 -25 20 -18 -1 5 -15 4 -16 -5 -3 -8 11 -11 12 -11 2 0 -7 -4 -10 -10
-7 -5 3 -10 1 -10 -4 0 -6 5 -11 10 -11 16 0 12 -30 -5 -36 -8 -4 -13 -10 -10
-14 3 -5 -3 -13 -12 -19 -16 -9 -15 -10 7 -8 20 2 25 -3 30 -27 3 -16 11 -31
18 -32 7 -1 8 0 2 3 -15 7 -12 33 4 33 18 0 29 27 13 34 -7 2 -5 5 5 5 9 1 20
-3 23 -9 3 -5 1 -10 -6 -10 -10 0 -10 -3 -1 -12 10 -10 15 -10 21 1 6 9 11 10
15 2 5 -8 13 -8 28 0 20 11 37 0 38 -25 0 -4 11 -6 25 -4 14 3 25 1 25 -3 0
-5 -4 -9 -10 -9 -5 0 -10 -7 -10 -15 0 -8 -7 -15 -15 -15 -8 0 -15 5 -15 11 0
5 5 7 12 3 7 -4 8 -3 4 4 -4 6 -14 8 -22 5 -13 -5 -15 -1 -10 14 5 17 2 19
-24 18 -16 -1 -32 -4 -36 -7 -3 -3 -20 -4 -37 -2 -18 2 -25 1 -17 -3 8 -3 18
-11 22 -17 5 -7 8 -6 9 4 0 10 3 8 9 -5 7 -17 9 -17 9 -2 1 9 8 17 17 17 13 0
14 -3 5 -13 -6 -8 -8 -17 -4 -21 9 -9 11 -46 2 -40 -4 2 -11 -1 -15 -7 -4 -8
-3 -9 4 -5 7 4 12 1 13 -6 0 -7 7 2 15 20 8 17 20 32 27 31 9 0 9 -2 0 -6 -7
-2 -13 -9 -13 -15 0 -6 7 -8 15 -4 9 3 19 -3 25 -14 9 -17 7 -20 -10 -20 -12
0 -18 5 -15 10 3 6 2 10 -4 10 -18 0 -31 -35 -19 -51 8 -11 9 -11 4 3 -6 20 5
30 22 19 14 -8 -11 -51 -31 -51 -7 0 -20 -12 -30 -25 l-18 -25 26 10 c33 13
33 13 38 -2 2 -7 2 -3 1 9 -5 27 10 37 33 24 11 -6 13 -11 5 -11 -7 0 -10 -5
-6 -11 4 -8 10 -7 18 1 8 8 5 16 -14 30 -14 11 -19 20 -12 20 6 0 12 7 12 15
0 8 5 15 11 15 6 0 9 6 6 14 -3 7 0 19 6 25 8 8 6 11 -9 11 -14 0 -16 2 -5 9
7 5 21 6 31 4 10 -3 21 1 25 7 5 9 1 10 -14 5 -20 -6 -21 -5 -10 13 7 12 17
19 21 16 4 -3 5 2 2 10 -3 9 -14 13 -29 10 -20 -3 -23 0 -20 16 2 13 -2 20
-11 20 -8 0 -13 4 -9 10 9 14 37 -1 31 -17 -3 -8 -2 -12 3 -9 4 3 17 -1 27 -9
25 -19 38 -19 30 0 -3 9 0 15 9 15 10 0 13 -9 10 -30 -2 -16 1 -30 7 -30 5 0
8 7 5 15 -4 8 -2 17 4 20 5 4 7 11 4 16 -4 5 6 14 22 20 36 13 73 48 73 68 0
13 2 13 9 2 7 -11 10 -9 16 8 3 11 9 21 13 21 4 0 18 3 31 7 21 5 22 3 16 -17
-5 -16 -4 -20 4 -15 7 4 9 20 6 43 -4 24 -3 32 3 24 7 -10 11 -10 22 3 12 14
15 14 31 -1 11 -10 19 -13 19 -8 0 5 5 1 11 -9 9 -15 12 -16 25 -2 9 8 20 13
25 10 4 -3 20 2 33 10 61 40 211 -47 247 -143 9 -24 13 -44 24 -132 2 -16 9
-24 19 -24 11 1 13 -3 7 -15 -5 -9 -6 -22 -3 -30 3 -8 0 -11 -7 -7 -6 4 -11
16 -11 27 0 10 -7 19 -15 19 -8 0 -15 6 -15 13 0 17 -58 60 -70 52 -17 -11
-11 -25 8 -18 14 6 15 4 5 -9 -7 -8 -9 -18 -5 -23 6 -7 -15 -4 -73 9 -5 1 -29
14 -52 29 -24 15 -55 27 -70 27 -23 -1 -19 -4 20 -18 35 -12 60 -31 93 -70 24
-30 44 -49 44 -43 0 6 6 8 13 5 17 -6 69 45 60 60 -4 6 1 5 11 -3 11 -9 16
-24 13 -38 -2 -13 -1 -23 3 -23 4 0 11 -16 14 -35 4 -21 13 -35 21 -35 16 0
20 -16 6 -24 -8 -6 -22 -46 -16 -46 2 0 11 7 19 16 15 14 17 14 32 0 14 -15
13 -16 -7 -16 -12 0 -27 -7 -34 -16 -13 -18 -65 -29 -65 -13 0 5 3 8 8 8 17
-3 32 2 32 10 0 5 -11 8 -25 7 -27 -1 -39 -23 -30 -49 4 -8 1 -18 -5 -22 -6
-3 -9 -1 -8 5 2 8 -11 13 -35 14 -40 1 -50 -8 -16 -17 12 -3 18 -10 15 -15 -3
-5 1 -15 9 -22 19 -16 19 -31 0 -24 -8 4 -15 1 -15 -5 0 -6 -6 -11 -14 -11 -8
0 -16 -10 -18 -21 -2 -16 -11 -23 -32 -25 -29 -3 -54 -26 -36 -32 17 -6 11
-18 -16 -30 -14 -7 -23 -9 -21 -5 3 5 -15 20 -39 35 l-43 27 5 -28 c4 -16 1
-32 -5 -35 -14 -9 -14 -26 -1 -26 6 0 10 7 10 15 0 8 4 15 9 15 14 0 22 -30 8
-30 -7 0 -6 -4 3 -10 9 -5 17 -25 18 -45 2 -30 -2 -38 -28 -53 -38 -22 -42
-62 -6 -62 13 0 29 7 36 15 16 19 23 14 14 -9 -4 -9 -24 -26 -45 -37 -24 -12
-41 -29 -45 -43 -3 -14 -12 -27 -20 -30 -8 -3 -14 -15 -14 -27 l0 -22 19 22
c11 12 32 26 48 30 18 5 29 15 31 29 3 23 42 52 42 32 0 -5 7 -10 15 -10 8 0
15 -4 15 -9 0 -5 12 -11 28 -15 15 -3 38 -9 51 -12 15 -5 22 -3 18 3 -4 6 0
19 8 29 11 15 16 17 26 7 23 -23 32 -14 25 27 -8 51 5 52 54 2 29 -29 44 -57
68 -132 16 -52 33 -128 37 -169 7 -75 18 -113 43 -143 14 -16 13 -18 -11 -18
-32 0 -58 10 -52 19 2 4 -15 9 -38 10 -23 2 -48 3 -55 4 -14 0 -13 13 7 77 9
29 9 32 -3 20 -8 -8 -21 -35 -29 -60 -8 -25 -19 -43 -23 -40 -5 3 -10 -4 -11
-15 -2 -11 0 -14 3 -7 8 17 34 15 34 -3 0 -17 39 -25 130 -28 60 -2 64 0 70
22 7 32 30 39 37 11 4 -15 11 -20 24 -17 10 3 26 -2 36 -10 16 -13 15 -13 -14
-8 -21 4 -33 3 -33 -4 0 -6 -9 -11 -19 -11 -11 0 -23 -5 -26 -11 -4 -6 -17
-14 -29 -19 -19 -8 -18 -9 7 -7 16 2 32 9 37 16 14 23 30 -22 30 -83 0 -31 5
-56 10 -56 20 0 9 -21 -15 -30 -36 -14 -31 -23 9 -16 26 5 35 3 40 -10 13 -34
7 -46 -19 -40 -22 6 -25 2 -37 -35 -7 -25 -19 -44 -30 -47 -23 -6 -23 -27 0
-44 10 -7 19 -24 19 -36 1 -13 10 -31 20 -40 27 -25 43 -59 37 -76 -4 -12 0
-14 21 -10 17 3 24 1 20 -6 -3 -5 -1 -10 5 -10 6 0 8 -4 5 -10 -3 -5 1 -10 9
-10 9 0 16 -5 16 -11 0 -13 -41 -48 -56 -49 -12 0 -11 -156 1 -168 3 -3 5 0 5
7 0 7 5 9 11 6 11 -7 -17 -34 -37 -35 -16 0 -35 172 -20 185 19 18 18 45 -2
45 -10 0 -22 -4 -27 -9 -6 -5 -21 -11 -35 -13 -14 -2 -25 -10 -25 -18 0 -8 -4
-18 -9 -22 -6 -4 -5 -17 2 -32 10 -22 9 -26 -3 -26 -20 0 -19 -10 1 -25 14
-10 9 -12 -31 -13 -26 0 -52 -5 -58 -11 -6 -6 -20 -11 -30 -11 -16 0 -17 3 -7
15 7 8 21 15 31 15 11 0 19 5 19 11 0 6 6 9 13 6 10 -4 13 7 14 37 0 22 -2 35
-4 29 -3 -7 -11 -13 -19 -13 -8 0 -14 -8 -14 -18 0 -36 -50 -60 -50 -24 0 9
-7 25 -14 35 -13 17 -14 17 -20 0 -6 -14 -9 -15 -16 -4 -4 8 -6 20 -3 28 3 7
-2 13 -11 13 -9 0 -16 -5 -16 -11 0 -5 -5 -7 -11 -3 -6 3 -9 15 -6 25 3 10 -1
24 -9 30 -12 10 -14 7 -12 -12 3 -20 -2 -25 -24 -27 -30 -4 -36 9 -14 28 8 6
12 18 9 26 -3 9 2 14 17 14 11 0 19 4 16 8 -2 4 -27 7 -55 6 -42 -1 -51 2 -51
15 0 14 7 16 37 13 34 -4 37 -3 24 12 -15 18 -61 19 -73 1 -4 -5 -10 -6 -15
-1 -4 4 0 12 9 17 20 11 12 43 -8 35 -15 -6 -17 1 -14 52 1 26 -2 32 -19 32
-22 0 -29 -16 -10 -22 6 -2 8 -14 4 -30 l-7 -27 -32 32 c-29 28 -32 37 -28 74
2 25 8 40 14 37 11 -7 4 20 -19 76 -15 34 -15 35 -24 11 -5 -13 -10 -41 -11
-63 l-1 -40 -14 27 c-8 14 -13 45 -11 68 2 30 -1 41 -10 39 -7 -1 -15 5 -19
13 -5 14 -7 14 -23 0 -13 -12 -23 -13 -44 -6 -35 14 -33 27 8 41 47 15 54 28
47 83 l-6 47 -39 -35 c-21 -19 -43 -32 -49 -28 -5 3 -12 1 -16 -4 -9 -14 -71
-25 -71 -13 0 6 4 10 9 10 16 0 61 46 54 54 -4 4 1 4 11 0 12 -5 22 -2 27 9 5
8 23 18 39 22 17 4 30 11 30 16 0 11 -43 2 -80 -16 -14 -7 -46 -18 -72 -26
-27 -7 -48 -19 -48 -26 0 -8 -7 -16 -15 -19 -8 -4 -15 -14 -15 -24 0 -10 -7
-23 -15 -30 -8 -7 -15 -28 -15 -46 0 -28 -5 -35 -25 -40 -18 -4 -25 -13 -25
-29 0 -13 4 -26 10 -30 5 -3 6 -13 3 -22 -5 -12 -2 -15 9 -11 19 8 38 -10 31
-28 -7 -20 -23 -17 -23 4 0 14 -2 15 -10 2 -18 -28 -11 -46 17 -45 14 0 28 -6
30 -12 7 -20 -63 -16 -128 8 -53 19 -65 20 -111 10 -29 -7 -68 -15 -86 -18
-18 -3 -35 -9 -38 -14 -7 -12 37 -11 112 3 49 9 73 9 104 -1 46 -14 61 -38 66
-109 3 -50 13 -65 53 -82 16 -6 31 -20 34 -31 3 -10 11 -19 17 -19 8 0 10 9 5
27 -5 23 -4 25 9 14 9 -7 14 -17 11 -21 -3 -5 -1 -11 5 -15 5 -3 10 -12 10
-19 0 -11 -10 -11 -47 -5 -26 5 -49 12 -52 17 -6 8 -23 10 -121 15 -36 2 -85
12 -110 21 -25 10 -53 18 -62 19 -9 1 -16 6 -15 11 1 6 -18 16 -43 23 -67 18
-150 49 -197 72 -23 12 -47 21 -53 21 -5 0 -10 5 -10 10 0 6 -3 9 -7 8 -5 0
-15 1 -23 5 -23 8 -90 16 -90 10 0 -2 10 -13 23 -23 30 -25 16 -35 -22 -16
-36 19 -45 20 -35 4 5 -8 1 -7 -10 2 -15 12 -17 24 -13 70 3 30 10 67 15 81
11 26 11 27 121 28 111 1 111 1 158 -33 59 -41 107 -66 129 -66 13 0 15 8 12
47 -4 58 13 79 77 93 40 9 88 27 161 62 45 21 122 99 144 145 30 65 24 149
-16 224 -58 107 -231 258 -398 348 -33 17 -62 33 -64 36 -2 2 7 18 20 36 21
29 125 89 156 89 7 0 26 7 43 15 40 21 176 55 222 55 20 0 37 4 37 9 0 6 -16
7 -35 4 -28 -4 -35 -2 -33 8 2 8 8 18 13 22 6 5 -1 5 -15 2 -14 -4 -29 -12
-35 -17 -6 -6 -5 -8 5 -5 8 2 12 2 7 0 -4 -3 -5 -9 -1 -14 3 -5 0 -9 -5 -9 -6
0 -11 5 -11 10 0 6 -5 10 -11 10 -5 0 -7 -5 -3 -12 5 -7 3 -8 -6 -3 -10 6 -10
11 3 20 18 13 24 30 7 20 -5 -3 -10 0 -11 7 0 10 -2 10 -6 1 -6 -16 -33 -17
-33 -1 0 6 3 8 6 5 4 -3 18 3 32 13 25 20 78 28 67 11 -3 -5 0 -13 6 -17 8 -4
9 -3 5 4 -4 7 -2 12 4 12 6 0 8 4 5 10 -3 5 2 9 12 8 34 -3 54 2 48 11 -3 5
-1 13 5 16 6 4 10 3 9 -2 -5 -32 4 -33 25 -3 26 40 29 56 6 52 -11 -2 -10 2 4
13 17 13 11 20 -11 13 -12 -5 -14 -38 -2 -38 8 0 8 -4 0 -14 -7 -8 -21 -13
-31 -11 -11 2 -19 -1 -17 -7 3 -16 -41 -17 -48 0 -3 8 -12 11 -20 8 -8 -3 -15
0 -15 7 0 7 -3 8 -8 2 -11 -16 -32 -16 -32 -1 0 8 6 16 13 19 9 3 9 7 -2 20
-20 24 -29 21 -36 -13 -4 -17 -11 -28 -15 -25 -12 7 -33 -32 -25 -45 3 -6 2
-10 -4 -10 -15 0 -23 18 -15 32 11 17 12 48 3 48 -5 0 -13 -9 -19 -20 -9 -17
-8 -19 7 -13 15 5 16 3 6 -8 -14 -14 -18 -53 -5 -45 4 2 14 1 21 -4 19 -11 -7
-39 -30 -33 -9 3 -27 0 -38 -7 -24 -12 -52 -3 -31 10 8 5 2 10 -18 15 -39 8
-58 -1 -41 -21 9 -11 9 -14 0 -14 -7 0 -9 -4 -6 -10 3 -5 0 -10 -8 -10 -7 0
-14 7 -14 15 0 8 4 15 9 15 5 0 7 4 3 10 -8 12 -35 1 -32 -13 1 -7 -4 -11 -11
-9 -7 1 -20 -4 -28 -13 -14 -13 -14 -15 3 -16 11 0 13 -3 5 -6 -7 -3 -19 1
-27 7 -11 9 -15 9 -15 1 0 -6 -8 -11 -17 -11 -17 1 -17 1 0 11 9 6 15 14 12
20 -4 5 2 6 11 2 13 -5 15 -3 9 7 -5 9 -4 11 3 6 17 -10 35 3 24 17 -5 7 -12
24 -15 38 -6 22 -11 25 -33 21 -22 -4 -26 -2 -21 11 3 8 -1 21 -9 27 -8 7 -14
9 -14 4 0 -4 -7 1 -15 12 -14 18 -14 18 -15 -4 0 -12 -7 -25 -15 -28 -8 -4
-12 -10 -9 -15 3 -5 -2 -9 -10 -9 -8 0 -18 -5 -22 -12 -5 -8 -1 -9 12 -5 18 7
18 6 1 -7 -15 -12 -15 -15 -2 -26 8 -7 12 -16 9 -21 -9 -15 -24 -10 -24 7 0 8
-4 13 -8 10 -15 -9 -7 39 8 52 13 12 13 13 -2 8 -10 -3 -25 -9 -33 -12 -10 -4
-15 0 -15 11 0 16 -2 17 -17 3 -10 -8 -31 -15 -48 -15 -16 0 -22 1 -12 4 25 7
21 23 -5 18 -20 -4 -21 -3 -7 8 9 7 15 20 13 30 -1 9 1 17 6 17 12 0 20 43 10
55 -9 11 10 26 45 35 13 4 38 40 32 46 -2 3 -12 -2 -21 -11 -14 -14 -16 -14
-16 -1 0 18 26 27 58 21 14 -2 25 2 29 10 3 8 12 15 20 15 22 0 5 -19 -35 -38
-41 -19 -52 -38 -22 -38 11 0 20 6 20 12 0 7 7 14 15 18 8 3 15 1 15 -4 0 -6
-5 -10 -11 -10 -5 0 -7 -5 -4 -11 4 -6 -2 -13 -14 -16 -12 -3 -21 -9 -21 -14
0 -5 -5 -9 -10 -9 -6 0 -9 5 -8 12 4 15 -22 18 -39 5 -7 -5 -10 -13 -7 -19 3
-5 0 -16 -7 -24 -6 -8 -9 -17 -5 -21 3 -3 0 -14 -8 -22 -9 -10 -12 -22 -7 -29
6 -10 11 -9 22 4 9 12 10 15 2 10 -7 -4 -13 -3 -13 3 0 5 5 13 10 16 6 4 8 10
5 15 -3 5 0 12 6 16 8 4 9 3 5 -4 -9 -15 -3 -15 28 -1 20 9 29 9 41 -1 12 -10
19 -10 27 -2 15 15 28 15 28 2 0 -6 -5 -9 -11 -8 -6 2 -14 -3 -17 -11 -3 -8 0
-11 7 -7 6 4 11 1 12 -6 0 -7 7 1 14 17 12 26 20 27 17 3 -1 -3 5 -9 13 -12 8
-3 15 -1 15 5 0 5 6 4 14 -3 8 -7 12 -16 10 -20 -2 -4 0 -9 6 -13 6 -4 7 -11
4 -17 -5 -8 -1 -9 10 -5 10 4 21 7 24 7 4 0 13 10 21 21 11 19 11 21 -2 16 -8
-3 -19 -1 -24 4 -6 6 -10 4 -10 -5 0 -8 4 -13 9 -10 4 3 8 0 8 -5 0 -19 -30
-12 -31 7 -3 35 3 48 32 75 40 37 27 34 -21 -4 -56 -45 -92 -25 -54 29 8 12
19 20 24 17 5 -3 8 9 8 26 -1 27 -2 29 -12 12 -6 -10 -11 -20 -11 -23 -3 -17
-44 -70 -49 -62 -5 9 -28 8 -76 -3 -17 -4 -15 -1 9 9 18 9 37 13 42 10 5 -3 9
4 9 15 0 12 4 21 10 21 5 0 6 -7 3 -17 -4 -10 -2 -14 5 -9 15 9 11 45 -5 39
-7 -3 -13 2 -13 10 0 8 11 18 25 21 14 4 25 12 25 19 0 8 4 7 10 -3 8 -13 10
-13 10 1 0 10 -10 16 -30 18 -65 4 -71 5 -68 21 4 17 38 27 38 11 0 -6 -8 -8
-17 -5 -15 5 -15 4 -4 -4 19 -14 52 3 45 22 -3 8 -15 13 -27 11 -14 -3 -17 -1
-10 6 6 6 25 11 42 11 17 1 34 6 38 11 3 6 1 7 -5 3 -7 -4 -12 -2 -12 5 0 10
-3 10 -12 1 -7 -7 -21 -12 -32 -12 -17 0 -18 2 -6 9 8 6 17 8 22 5 4 -2 12 5
18 16 8 15 17 19 35 14 15 -4 25 -2 25 5 0 6 -7 8 -17 4 -11 -4 -14 -3 -9 5
14 23 -20 12 -42 -13 -12 -14 -27 -25 -34 -25 -6 0 -3 6 8 14 19 15 19 15 -1
12 -11 -2 -23 -14 -26 -27 -4 -13 -7 -19 -8 -12 -1 6 -10 9 -21 6 -24 -6 -27
-25 -4 -21 10 2 19 -3 21 -10 3 -6 -1 -10 -9 -9 -7 2 -10 2 -6 0 12 -7 -11
-43 -27 -43 -8 0 -13 9 -12 20 1 11 5 20 10 20 4 0 5 5 2 10 -5 8 -11 8 -20 0
-9 -8 -15 -8 -20 0 -3 5 1 10 10 10 10 0 13 5 9 12 -4 6 -3 8 3 5 5 -3 22 5
37 18 15 13 23 26 17 29 -5 4 -13 1 -18 -7 -9 -14 -79 -38 -87 -30 -3 3 2 20
11 37 20 37 22 56 8 75 -8 11 -6 13 5 9 8 -3 14 -12 14 -21 -1 -13 2 -14 16
-7 26 14 37 12 37 -5 0 -9 -7 -14 -16 -12 -9 1 -24 -6 -34 -17 -20 -22 -15
-35 8 -16 8 7 15 9 15 6 0 -4 9 -2 19 4 11 5 22 6 25 1 3 -5 16 -8 29 -8 16 0
23 6 24 19 2 16 -1 17 -13 8 -11 -10 -14 -10 -15 1 0 10 -2 11 -6 2 -9 -24
-22 -13 -20 19 2 37 -14 46 -38 21 -17 -16 -17 -16 -10 7 11 37 35 60 63 60
20 0 22 -3 13 -14 -7 -8 -21 -13 -31 -11 -11 2 -22 0 -25 -5 -3 -5 3 -7 14 -5
11 2 25 -3 31 -11 7 -7 17 -11 23 -7 6 4 3 9 -9 14 -16 7 -16 8 6 8 19 1 26
-4 27 -19 2 -19 -7 -24 -34 -21 -7 1 -13 -3 -13 -9 0 -5 11 -10 25 -10 14 0
25 5 25 10 0 6 5 10 11 10 5 0 8 -4 5 -9 -4 -5 3 -7 14 -4 11 3 20 9 20 14 0
5 -8 6 -17 3 -12 -4 -10 1 7 15 20 17 21 20 5 14 -18 -6 -19 -5 -5 12 8 10 10
16 4 12 -11 -6 -39 26 -34 39 2 5 13 18 23 29 11 11 16 13 12 5 -5 -8 -4 -11
0 -7 14 12 14 35 1 33 -17 -3 -82 -66 -68 -66 6 0 12 -5 12 -11 0 -8 -4 -8
-15 1 -8 6 -18 9 -24 6 -17 -11 -39 5 -34 24 4 15 0 18 -19 16 -13 -1 -29 -5
-34 -9 -6 -3 -11 0 -11 8 0 8 4 16 9 16 4 1 13 2 18 3 17 2 6 21 -12 20 -13 0
-15 3 -7 17 13 25 23 29 39 17 12 -8 12 -9 -2 -4 -21 6 -34 -10 -14 -17 19 -7
44 22 28 32 -6 4 -8 12 -3 20 7 11 11 10 18 -4 8 -13 12 -14 18 -5 4 7 2 17
-6 22 -14 10 -2 7 38 -9z m503 -1 c0 -29 -42 -46 -85 -36 l-36 9 36 11 c30 9
35 9 31 -2 -3 -8 1 -14 10 -14 11 0 14 6 9 23 -5 17 -4 19 4 7 9 -13 11 -13
11 3 0 9 5 17 10 17 6 0 10 -8 10 -18z m112 11 c-6 -2 -10 -9 -6 -14 3 -5 1
-9 -5 -9 -6 0 -8 -7 -4 -16 3 -9 0 -20 -8 -24 -7 -5 -14 -25 -14 -44 -1 -36 9
-48 18 -23 3 6 6 2 6 -10 1 -12 -3 -25 -9 -28 -14 -8 9 -31 31 -31 10 0 15 4
12 9 -2 4 1 14 7 22 17 20 5 19 -15 -1 -9 -9 -19 -13 -23 -9 -4 4 6 17 22 30
16 12 25 28 22 34 -5 7 2 11 16 11 18 0 20 -2 8 -10 -11 -7 -11 -10 -2 -10 8
0 10 -5 5 -12 -12 -21 -13 -42 -1 -49 8 -5 6 -15 -6 -33 -19 -30 -36 -34 -37
-8 0 13 -3 12 -11 -5 -6 -13 -18 -23 -27 -22 -10 0 -12 2 -3 6 6 2 9 10 6 15
-4 7 -2 8 4 4 17 -10 15 9 -2 23 -11 9 -15 9 -18 0 -3 -10 -84 -16 -115 -9
-13 3 60 21 87 22 16 0 19 2 8 5 -17 4 -26 24 -10 22 25 -4 30 2 19 26 -14 30
-29 37 -48 23 -11 -8 -10 -9 4 -4 22 7 23 -10 0 -18 -9 -4 -20 -1 -24 5 -13
21 1 36 32 34 16 -1 27 0 24 3 -3 3 0 11 6 19 14 17 -2 17 -21 1 -12 -11 -12
-10 -1 4 12 15 10 19 -10 26 -13 5 -18 12 -12 15 6 4 22 -2 36 -13 22 -17 26
-18 31 -4 3 8 2 12 -4 9 -6 -3 -10 -1 -10 4 0 6 5 11 11 11 5 0 8 4 5 9 -6 9
10 19 29 19 6 0 4 -2 -3 -5z m38 3 c0 -3 -4 -8 -10 -11 -5 -3 -10 -1 -10 4 0
6 5 11 10 11 6 0 10 -2 10 -4z m53 -2 c-7 -3 -9 -12 -6 -20 3 -8 -3 -21 -13
-29 -18 -13 -17 -14 6 -9 20 5 22 3 10 -5 -24 -17 -40 -13 -40 10 0 18 -2 19
-15 9 -13 -11 -14 -10 -9 4 4 11 14 16 25 13 11 -3 22 0 26 5 3 6 1 8 -5 4 -6
-3 -14 -1 -18 5 -4 7 -3 9 4 5 6 -3 13 -2 17 4 3 5 12 10 18 9 9 0 9 -2 0 -5z
m-973 -14 c0 -5 -5 -10 -11 -10 -5 0 -7 5 -4 10 3 6 8 10 11 10 2 0 4 -4 4
-10z m40 0 c0 -5 -5 -10 -11 -10 -5 0 -7 5 -4 10 3 6 8 10 11 10 2 0 4 -4 4
-10z m436 -14 c2 -15 2 -15 -3 0 -4 14 -7 14 -14 3 -7 -11 -9 -10 -9 4 0 23
24 17 26 -7z m364 20 c0 -3 -4 -8 -10 -11 -5 -3 -10 -1 -10 4 0 6 5 11 10 11
6 0 10 -2 10 -4z m-314 -22 c-5 -13 -2 -15 13 -11 12 3 22 -1 25 -10 3 -8 11
-11 18 -7 7 4 3 -7 -8 -26 -19 -33 -58 -53 -47 -24 3 8 10 11 16 7 7 -4 8 0 4
11 -4 10 -7 22 -7 27 0 6 -4 7 -10 4 -5 -3 -10 -1 -10 6 0 7 -6 5 -14 -6 -13
-18 -51 -32 -40 -14 3 5 12 9 20 9 8 0 14 7 14 15 0 8 5 15 11 15 5 0 7 5 4
10 -3 6 -1 10 5 10 7 0 9 -7 6 -16z m529 6 c-3 -5 -17 -10 -30 -10 -18 0 -23
-5 -22 -20 1 -14 6 -19 17 -15 10 3 9 1 -3 -9 -10 -8 -24 -22 -32 -32 -11 -16
-12 -16 -10 7 1 13 4 26 5 29 2 3 3 14 4 25 1 13 10 22 31 26 45 10 47 10 40
-1z m-945 -17 c0 -10 -4 -14 -8 -8 -4 6 -11 13 -16 18 -5 4 -2 7 7 7 10 0 17
-8 17 -17z m270 7 c0 -5 -5 -10 -11 -10 -5 0 -7 5 -4 10 3 6 8 10 11 10 2 0 4
-4 4 -10z m522 -31 c5 -3 3 -9 -4 -11 -9 -4 -14 3 -15 21 -1 14 1 19 4 11 3
-8 10 -18 15 -21z m168 21 c-8 -5 -22 -9 -30 -9 -10 0 -8 3 5 9 27 12 43 12
25 0z m544 2 c-6 -4 -14 -14 -17 -22 -4 -10 -6 -8 -6 8 -1 15 5 22 17 22 10 0
13 -3 6 -8z m-1590 -17 c-3 -7 -16 -18 -29 -25 -13 -7 -24 -16 -23 -19 2 -24
-4 -51 -11 -47 -15 9 0 56 25 75 13 10 21 20 19 23 -3 3 1 5 9 5 8 0 12 -6 10
-12z m1233 9 c-3 -3 -12 -4 -19 -1 -8 3 -5 6 6 6 11 1 17 -2 13 -5z m558 -4
c-3 -5 -12 -10 -18 -10 -7 0 -6 4 3 10 19 12 23 12 15 0z m-1959 -27 c-6 -6
-36 9 -36 18 0 5 9 4 20 -3 10 -7 18 -14 16 -15z m898 15 c-6 -10 -4 -10 7 0
7 6 22 12 34 12 18 -1 17 -3 -8 -24 -16 -12 -34 -23 -41 -23 -16 0 -17 29 -2
39 16 11 18 10 10 -4z m826 8 c0 -2 -7 -6 -15 -10 -8 -3 -15 -1 -15 4 0 6 7
10 15 10 8 0 15 -2 15 -4z m-1644 -43 c-10 -10 -19 5 -10 18 6 11 8 11 12 0 2
-7 1 -15 -2 -18z m684 23 c0 -2 -6 -9 -13 -15 -10 -8 -14 -7 -14 4 0 8 6 15
14 15 7 0 13 -2 13 -4z m59 1 c-2 -1 -13 -9 -24 -17 -19 -14 -19 -14 -6 3 7 9
18 17 24 17 6 0 8 -1 6 -3z m34 -12 c-3 -9 -8 -14 -10 -11 -3 3 -2 9 2 15 9
16 15 13 8 -4z m-648 -42 c-9 -15 -14 -20 -11 -11 3 9 0 19 -7 22 -7 2 -4 5 6
5 9 1 17 6 17 13 0 6 3 9 6 6 3 -4 -2 -19 -11 -35z m188 23 c6 -14 0 -26 -13
-26 -3 0 -6 9 -7 20 -2 23 12 27 20 6z m147 -6 c0 -11 -4 -20 -9 -20 -6 0 -9
9 -8 20 1 11 5 20 9 20 4 0 8 -9 8 -20z m34 4 c3 -8 2 -12 -4 -9 -6 3 -10 10
-10 16 0 14 7 11 14 -7z m466 -9 c0 -8 -4 -15 -10 -15 -5 0 -7 7 -4 15 4 8 8
15 10 15 2 0 4 -7 4 -15z m-1130 -28 c0 -4 -6 -2 -14 5 -8 7 -12 17 -9 22 5 8
23 -12 23 -27z m37 1 c-3 -8 -6 -5 -6 6 -1 11 2 17 5 13 3 -3 4 -12 1 -19z
m220 -5 c0 -16 -2 -22 -4 -15 -3 6 -10 9 -16 5 -8 -5 -8 -2 0 9 7 8 10 18 6
21 -3 4 -2 7 4 7 6 0 10 -12 10 -27z m413 -9 c0 -3 -7 -1 -15 6 -8 7 -15 17
-15 22 0 5 7 3 15 -6 8 -8 15 -18 15 -22z m145 26 c-3 -5 -12 -10 -18 -10 -7
0 -6 4 3 10 19 12 23 12 15 0z m376 -23 c-10 -9 -11 -8 -5 6 3 10 9 15 12 12
3 -3 0 -11 -7 -18z m-791 1 c0 -9 4 -8 10 2 6 9 10 10 10 3 0 -14 -6 -18 -41
-26 -18 -5 -26 -3 -26 7 0 8 6 12 14 9 7 -3 13 0 13 6 0 6 5 11 10 11 6 0 10
-6 10 -12z m611 1 c11 -5 17 -14 14 -20 -4 -5 -11 -6 -17 -3 -6 4 -15 0 -20
-7 -6 -10 -7 -6 -3 11 6 24 5 24 -9 6 -9 -11 -16 -15 -16 -10 0 10 20 34 28
34 2 0 12 -5 23 -11z m-1047 -6 c-5 -5 -12 -12 -16 -18 -4 -6 -8 -2 -8 8 0 9
7 17 17 17 9 0 12 -3 7 -7z m183 1 c-3 -3 -12 -4 -19 -1 -8 3 -5 6 6 6 11 1
17 -2 13 -5z m33 -4 c0 -5 -5 -10 -11 -10 -5 0 -7 5 -4 10 3 6 8 10 11 10 2 0
4 -4 4 -10z m23 -17 c-5 -12 -3 -14 7 -8 8 5 11 4 7 -2 -5 -8 -27 -9 -56 -4
-7 1 33 30 41 31 4 0 4 -7 1 -17z m99 -16 c10 -17 -2 -36 -20 -30 -10 3 -13 1
-7 -4 6 -4 11 -19 12 -33 1 -14 -1 -19 -3 -12 -3 6 -10 9 -16 6 -5 -3 -9 0 -7
7 3 28 -1 40 -13 33 -8 -4 -10 -3 -5 2 9 9 13 10 43 13 8 0 13 5 9 11 -3 5
-12 7 -20 3 -8 -3 -15 -1 -15 4 0 13 33 13 42 0z m243 3 c3 -5 -1 -10 -9 -10
-9 0 -16 5 -16 10 0 6 4 10 9 10 6 0 13 -4 16 -10z m1575 0 c0 -5 -4 -10 -10
-10 -5 0 -10 5 -10 10 0 6 5 10 10 10 6 0 10 -4 10 -10z m-1890 -15 c-7 -8
-17 -15 -23 -15 -6 0 -2 7 9 15 25 19 30 19 14 0z m-183 -1 c-3 -3 -12 -4 -19
-1 -8 3 -5 6 6 6 11 1 17 -2 13 -5z m311 -6 c-2 -6 -14 -13 -27 -15 -14 -2
-20 1 -16 8 4 6 13 8 21 5 8 -3 14 -1 14 4 0 6 3 10 6 10 3 0 4 -5 2 -12z
m519 -2 c-3 -7 0 -19 6 -25 8 -8 8 -11 0 -11 -7 0 -14 4 -17 9 -6 10 3 41 11
41 3 0 3 -6 0 -14z m1003 -1 c-7 -9 -15 -13 -19 -10 -3 3 1 10 9 15 21 14 24
12 10 -5z m-1920 -5 c0 -5 -5 -10 -11 -10 -5 0 -7 5 -4 10 3 6 8 10 11 10 2 0
4 -4 4 -10z m246 -13 c8 3 14 1 14 -5 0 -6 -14 -8 -32 -6 -32 4 -32 4 -13 -11
13 -10 16 -18 9 -23 -16 -11 -25 -42 -12 -42 6 0 9 -3 6 -6 -4 -3 -21 3 -40
12 -18 10 -37 17 -41 16 -5 -1 -5 2 -2 8 5 8 14 6 31 -4 30 -21 31 -20 36 8 3
17 0 27 -11 31 -13 5 -12 10 9 27 21 17 25 18 28 5 2 -9 9 -14 18 -10z m194
13 c0 -5 -4 -10 -9 -10 -6 0 -13 5 -16 10 -3 6 1 10 9 10 9 0 16 -4 16 -10z
m150 4 c0 -8 -19 -13 -24 -6 -3 5 1 9 9 9 8 0 15 -2 15 -3z m1280 2 c0 -2 -9
-6 -20 -9 -11 -3 -18 -1 -14 4 5 9 34 13 34 5z m-1749 -15 c-8 -5 -20 -7 -28
-4 -21 8 -15 13 15 13 20 0 23 -3 13 -9z m44 -1 c3 -5 -1 -10 -10 -10 -9 0
-13 5 -10 10 3 6 8 10 10 10 2 0 7 -4 10 -10z m845 0 c0 -5 -4 -10 -10 -10 -5
0 -10 5 -10 10 0 6 5 10 10 10 6 0 10 -4 10 -10z m30 -5 c0 -8 -4 -15 -8 -15
-5 0 -9 7 -9 15 0 8 4 15 9 15 4 0 8 -7 8 -15z m-964 -17 c-14 -8 -15 -13 -5
-24 10 -12 9 -13 -5 -8 -18 7 -21 20 -6 29 6 4 8 11 5 16 -3 5 1 6 11 2 15 -6
15 -7 0 -15z m198 -13 c-18 -15 -18 -15 0 -8 16 5 18 3 12 -20 -4 -19 -2 -27
11 -30 14 -4 12 -5 -4 -6 -13 0 -23 -6 -23 -12 0 -5 5 -7 12 -3 7 4 8 3 4 -5
-6 -9 -11 -9 -22 0 -8 7 -11 15 -6 18 21 14 20 39 -1 45 l-22 6 25 19 c14 11
27 18 29 15 3 -2 -4 -11 -15 -19z m91 14 c12 -19 -5 -23 -22 -6 -16 16 -16 17
-1 17 9 0 20 -5 23 -11z m-365 -9 c0 -5 -2 -10 -4 -10 -3 0 -8 5 -11 10 -3 6
-1 10 4 10 6 0 11 -4 11 -10z m400 0 c0 -5 -4 -10 -10 -10 -5 0 -10 5 -10 10
0 6 5 10 10 10 6 0 10 -4 10 -10z m-439 -23 c-10 -9 -11 -8 -5 6 3 10 9 15 12
12 3 -3 0 -11 -7 -18z m404 -7 c3 -5 2 -10 -4 -10 -5 0 -13 5 -16 10 -3 6 -2
10 4 10 5 0 13 -4 16 -10z m25 -15 c0 -11 -10 -15 -37 -14 -28 1 -31 3 -13 6
14 3 29 9 35 14 12 12 15 11 15 -6z m-130 -4 c0 -5 -7 -12 -16 -15 -14 -5 -15
-4 -4 9 14 17 20 19 20 6z m777 -7 c-3 -3 -12 -4 -19 -1 -8 3 -5 6 6 6 11 1
17 -2 13 -5z m-1040 -10 c-3 -3 -12 -4 -19 -1 -8 3 -5 6 6 6 11 1 17 -2 13 -5z
m173 -20 c0 -6 -7 -14 -15 -18 -8 -3 -15 -1 -15 4 0 6 -3 9 -7 9 -16 -3 -24 1
-19 9 8 13 56 9 56 -4z m190 6 c-13 -8 -12 -10 3 -10 9 0 17 -7 17 -15 0 -8
-4 -15 -10 -15 -5 0 -10 5 -10 11 0 6 -9 9 -20 6 -11 -3 -20 -2 -20 2 0 13 24
31 40 31 13 0 13 -1 0 -10z m-292 -24 c-7 -8 -15 -12 -17 -11 -5 6 10 25 20
25 5 0 4 -6 -3 -14z m-131 -43 c-3 -10 -5 -2 -5 17 0 19 2 27 5 18 2 -10 2
-26 0 -35z m373 30 c0 -16 12 -17 28 -1 9 9 12 9 12 0 0 -16 37 -15 43 1 4 7
6 6 6 -5 1 -9 4 -23 7 -32 4 -11 1 -16 -10 -16 -9 0 -16 4 -16 8 0 5 -11 14
-25 20 -18 9 -26 8 -32 -1 -11 -18 -12 -37 -2 -37 5 0 9 -5 9 -11 0 -5 -5 -7
-12 -3 -7 4 -8 3 -4 -5 4 -6 12 -9 17 -6 5 4 9 2 9 -4 0 -6 -11 -13 -25 -17
-14 -3 -25 -12 -25 -19 0 -6 -9 -20 -20 -30 -18 -17 -25 -14 -21 9 1 5 -6 3
-15 -5 -12 -9 -15 -10 -10 -1 5 9 1 11 -16 8 -13 -3 -26 -5 -30 -5 -5 -1 -7
-4 -7 -8 4 -23 -4 -34 -32 -48 -23 -12 -29 -21 -24 -35 5 -15 2 -18 -8 -14
-18 6 -11 40 9 48 7 3 12 11 10 18 -1 7 -1 10 1 6 3 -5 12 -8 21 -7 12 0 13 2
4 6 -10 4 -8 11 9 29 12 13 17 24 11 24 -6 0 -13 -4 -16 -8 -3 -5 -19 -9 -36
-10 -17 0 -28 4 -25 9 4 5 13 9 22 9 9 0 22 8 29 18 13 16 15 16 29 -2 13 -17
15 -17 21 -3 3 9 14 19 25 22 25 8 25 35 0 35 -11 0 -21 -9 -24 -21 -3 -13
-10 -18 -17 -14 -9 5 -9 10 -1 18 13 13 14 27 3 27 -5 0 -14 -10 -21 -22 l-11
-23 6 24 c5 18 3 22 -7 15 -12 -6 -12 -5 -1 8 8 10 20 14 29 11 10 -4 14 -2
10 4 -5 7 2 10 18 8 26 -2 35 10 13 18 -7 2 -10 8 -6 12 4 4 14 1 22 -8 8 -8
12 -18 8 -21 -3 -4 1 -4 11 0 10 3 17 1 17 -6 0 -7 -12 -9 -34 -6 -23 4 -38 1
-42 -7 -4 -6 -4 -9 0 -5 5 4 19 3 32 -2 27 -11 70 4 78 26 4 10 -3 14 -23 14
-16 0 -31 6 -34 13 -4 10 5 13 29 13 20 -1 34 -6 34 -13z m-322 -7 c-10 -7
-15 -16 -11 -20 4 -4 -1 -4 -11 0 -17 6 -16 8 5 20 31 17 39 17 17 0z m182 2
c0 -11 -22 -10 -39 1 -10 7 -7 9 12 8 15 -1 27 -5 27 -9z m30 8 c0 -3 -4 -8
-10 -11 -5 -3 -10 -1 -10 4 0 6 5 11 10 11 6 0 10 -2 10 -4z m-80 -17 c12 -9
12 -10 -4 -5 -12 4 -23 0 -32 -11 -12 -17 -13 -16 -7 5 6 24 20 28 43 11z
m1580 -10 c0 -14 -17 -10 -23 5 -4 10 -1 13 9 9 7 -3 14 -9 14 -14z m-1641 -6
c0 -10 -3 -13 -5 -6 -3 7 -13 9 -22 6 -15 -4 -15 -3 -2 6 22 15 30 14 29 -6z
m281 -3 c0 -5 -5 -10 -11 -10 -5 0 -7 5 -4 10 3 6 8 10 11 10 2 0 4 -4 4 -10z
m1384 -6 c3 -8 2 -12 -4 -9 -6 3 -10 10 -10 16 0 14 7 11 14 -7z m227 -2 c-7
-2 -18 1 -23 6 -8 8 -4 9 13 5 13 -4 18 -8 10 -11z m-1596 -40 c-12 -13 -24
22 -12 37 10 12 13 11 15 -8 2 -13 1 -26 -3 -29z m85 44 c0 -3 -4 -8 -10 -11
-5 -3 -10 -1 -10 4 0 6 5 11 10 11 6 0 10 -2 10 -4z m1441 -19 c-10 -9 -11 -8
-5 6 3 10 9 15 12 12 3 -3 0 -11 -7 -18z m231 -19 c-8 -8 -9 -4 -5 13 4 13 8
18 11 10 2 -7 -1 -18 -6 -23z m-32 18 c0 -2 -7 -9 -15 -16 -13 -11 -14 -10 -9
4 5 14 24 23 24 12z m-2362 -31 c-3 -3 -9 2 -12 12 -6 14 -5 15 5 6 7 -7 10
-15 7 -18z m322 5 c-14 -27 -12 -34 5 -20 8 7 15 9 15 4 0 -5 5 -1 11 9 9 16
12 16 26 1 13 -12 13 -18 3 -27 -10 -9 -11 -9 -6 0 10 18 -10 25 -24 8 -14
-17 -46 -20 -55 -5 -4 6 -11 8 -16 5 -5 -4 -9 -1 -9 5 0 7 7 10 15 7 8 -4 17
-2 20 3 4 6 1 10 -4 10 -20 0 -11 16 9 17 17 2 18 -1 10 -17z m95 10 c3 -5 -1
-10 -10 -10 -9 0 -13 5 -10 10 3 6 8 10 10 10 2 0 7 -4 10 -10z m288 -7 c-3
-7 -11 -13 -18 -13 -8 0 -17 -5 -21 -12 -4 -7 -3 -8 4 -4 13 8 16 -12 6 -37
-3 -9 -13 -13 -26 -9 -14 3 -19 1 -14 -6 4 -7 3 -12 -2 -12 -5 0 -8 -10 -8
-21 1 -12 -5 -24 -13 -27 -10 -3 -12 1 -8 18 7 27 -1 50 -16 46 -7 -1 -9 -1
-5 1 4 2 5 10 2 17 -3 8 2 16 10 19 10 4 14 0 11 -12 -2 -10 1 -24 6 -32 6
-10 9 -6 9 16 0 17 5 37 11 45 9 12 10 11 6 -7 -3 -13 -2 -23 3 -23 4 0 11 15
14 33 5 25 11 32 30 32 15 0 22 -5 19 -12z m1506 14 c-2 -1 -12 -9 -22 -16
-15 -12 -17 -12 -11 3 3 9 13 16 22 16 8 0 13 -1 11 -3z m-1958 -24 c13 -16
12 -17 -3 -4 -10 7 -18 15 -18 17 0 8 8 3 21 -13z m513 8 c3 -4 -8 -8 -23 -7
-16 1 -27 4 -24 9 6 10 41 9 47 -2z m1414 -24 c15 6 15 5 3 -11 -11 -13 -16
-14 -22 -4 -5 7 -8 20 -8 28 1 11 2 11 6 -2 3 -11 10 -15 21 -11z m-2138 9 c0
-3 -4 -8 -10 -11 -5 -3 -10 -1 -10 4 0 6 5 11 10 11 6 0 10 -2 10 -4z m195
-16 c-3 -5 -12 -10 -18 -10 -7 0 -6 4 3 10 19 12 23 12 15 0z m2255 6 c0 -2
-7 -7 -16 -10 -8 -3 -12 -2 -9 4 6 10 25 14 25 6z m-2130 -26 c0 -5 -5 -10
-11 -10 -5 0 -7 5 -4 10 3 6 8 10 11 10 2 0 4 -4 4 -10z m1866 -2 c4 -6 3 -8
-4 -4 -6 3 -15 -2 -21 -11 -9 -16 -10 -16 -11 -1 0 9 6 19 13 21 6 3 13 6 14
6 1 1 5 -4 9 -11z m-2076 -2 c0 -3 -4 -8 -10 -11 -5 -3 -10 -1 -10 4 0 6 5 11
10 11 6 0 10 -2 10 -4z m60 0 c0 -2 -7 -7 -16 -10 -8 -3 -12 -2 -9 4 6 10 25
14 25 6z m104 -27 c-3 -5 -13 -9 -22 -9 -14 0 -14 2 -3 9 8 5 10 14 5 22 -7
12 -5 12 9 0 9 -7 14 -17 11 -22z m1933 9 c-3 -8 -6 -5 -6 6 -1 11 2 17 5 13
3 -3 4 -12 1 -19z m53 13 c0 -6 -4 -13 -10 -16 -5 -3 -10 1 -10 9 0 9 5 16 10
16 6 0 10 -4 10 -9z m-2077 -26 c-3 -9 -8 -14 -10 -11 -3 3 -2 9 2 15 9 16 15
13 8 -4z m137 11 c0 -2 -7 -7 -16 -10 -8 -3 -12 -2 -9 4 6 10 25 14 25 6z m22
-18 c-7 -7 -12 -22 -12 -35 0 -14 -6 -23 -16 -23 -8 0 -22 -7 -31 -15 -8 -9
-18 -13 -22 -9 -3 4 0 9 7 11 6 3 10 9 6 14 -3 5 -2 9 3 8 20 -3 43 2 43 10 0
13 -48 19 -59 8 -6 -6 -11 -7 -11 -1 0 5 -5 2 -10 -6 -7 -12 -9 -10 -8 6 2 19
7 21 41 18 25 -3 44 1 53 11 9 8 18 15 22 15 3 0 1 -5 -6 -12z m-307 -19 c-3
-12 -7 -24 -10 -27 -3 -3 -3 5 -1 19 6 30 5 29 10 29 3 0 3 -10 1 -21z m509
11 c-12 -12 -104 -21 -104 -11 0 14 8 16 61 18 31 1 48 -2 43 -7z m1679 -23
c-4 -7 -8 -15 -8 -19 0 -5 -4 -8 -9 -7 -5 0 -13 -5 -17 -13 -7 -10 -9 -9 -9 3
0 9 7 19 15 23 8 3 15 13 15 21 0 9 5 13 10 10 6 -4 7 -12 3 -18z m-1705 -9
c-6 -18 -38 -22 -52 -7 -6 6 -6 9 -1 6 6 -3 17 -2 25 4 21 12 32 11 28 -3z
m25 -13 c-3 -8 -9 -15 -15 -15 -5 0 -6 -5 -3 -10 4 -6 12 -7 18 -4 7 4 5 -1
-5 -11 -14 -15 -18 -15 -31 -4 -12 12 -11 16 10 32 13 10 20 23 17 29 -4 7 -2
8 4 4 6 -4 9 -13 5 -21z m1787 15 c0 -5 -2 -10 -4 -10 -3 0 -8 5 -11 10 -3 6
-1 10 4 10 6 0 11 -4 11 -10z m70 0 c0 -5 -5 -10 -11 -10 -5 0 -7 5 -4 10 3 6
8 10 11 10 2 0 4 -4 4 -10z m-1954 -12 c4 -6 3 -8 -4 -4 -6 3 -22 2 -36 -4
-15 -5 -26 -6 -26 -1 0 20 55 28 66 9z m2091 -10 c-3 -8 -6 -5 -6 6 -1 11 2
17 5 13 3 -3 4 -12 1 -19z m-237 -3 c-7 -9 -15 -13 -19 -10 -3 3 1 10 9 15 21
14 24 12 10 -5z m-140 -2 c-1 -14 -30 -47 -36 -41 -3 4 3 15 13 26 21 23 23
25 23 15z m220 -3 c0 -5 -5 -10 -11 -10 -5 0 -7 5 -4 10 3 6 8 10 11 10 2 0 4
-4 4 -10z m-1910 -4 c0 -2 -16 -6 -35 -8 -19 -2 -35 0 -35 4 0 4 16 8 35 8 19
0 35 -2 35 -4z m-233 -21 c0 -8 -4 -12 -9 -9 -5 3 -6 10 -3 15 9 13 12 11 12
-6z m964 -17 c-3 -21 -6 -26 -9 -15 -3 17 3 47 11 47 2 0 1 -15 -2 -32z m892
8 c-21 -28 -28 -26 -18 3 3 12 13 21 21 21 12 0 12 -4 -3 -24z m110 9 c-3 -9
-8 -14 -10 -11 -3 3 -2 9 2 15 9 16 15 13 8 -4z m-1803 -15 c0 -5 -7 -7 -15
-4 -8 4 -12 10 -9 15 6 11 24 2 24 -11z m65 10 c-25 -11 -58 -12 -52 -2 3 4
20 8 39 9 26 1 29 0 13 -7z m109 -5 c-6 -16 -24 -21 -24 -7 0 11 11 22 21 22
5 0 6 -7 3 -15z m1743 1 c-3 -8 -1 -17 6 -20 7 -2 2 -4 -10 -2 -12 1 -26 6
-30 11 -5 4 -3 5 3 2 7 -4 14 0 18 8 3 8 8 15 12 15 3 0 4 -6 1 -14z m-282
-25 c-16 -15 -32 -24 -33 -19 -5 11 36 48 52 48 6 0 -2 -13 -19 -29z m135 9
c-6 -11 -15 -20 -20 -20 -6 0 -2 9 7 20 10 11 19 20 21 20 1 0 -2 -9 -8 -20z
m-1950 4 c0 -3 -6 -12 -14 -20 -13 -12 -15 -12 -13 6 1 17 27 31 27 14z m955
-27 c0 -7 8 -11 18 -11 23 2 21 -8 -4 -24 -16 -10 -24 -11 -33 -2 -8 8 -6 10
9 5 17 -6 18 -5 5 7 -9 7 -14 21 -12 31 4 19 17 14 17 -6z m952 17 c-3 -3 -12
-4 -19 -1 -8 3 -5 6 6 6 11 1 17 -2 13 -5z m78 -39 c5 -29 5 -29 -6 -5 -16 33
-20 55 -9 44 5 -5 11 -22 15 -39z m-2040 25 c-3 -5 -12 -10 -18 -10 -7 0 -6 4
3 10 19 12 23 12 15 0z m191 -4 c3 -9 12 -12 21 -9 11 4 14 3 9 -6 -4 -6 -15
-11 -24 -9 -10 1 -23 -1 -29 -5 -8 -5 -13 -4 -13 3 0 6 7 13 16 17 13 5 13 7
2 14 -10 7 -10 9 0 9 7 0 15 -6 18 -14z m80 -11 c1 -7 -4 -11 -11 -9 -7 3 -15
-2 -18 -10 -4 -9 -14 -16 -24 -16 -12 0 -8 7 15 23 17 13 30 27 27 30 -3 4 -2
5 2 2 4 -3 8 -12 9 -20z m33 3 c1 6 6 12 12 12 8 0 8 -5 -1 -15 -15 -18 -30
-11 -29 13 0 14 2 13 9 -3 5 -11 9 -14 9 -7z m82 2 c-8 -4 -11 -15 -8 -25 4
-9 3 -14 -3 -10 -6 3 -10 12 -10 19 0 15 22 38 29 30 3 -3 -1 -9 -8 -14z
m1492 -10 c-12 -10 -23 -24 -25 -31 -2 -7 -10 -9 -16 -5 -16 10 -15 26 1 26 8
0 22 9 32 20 10 11 21 18 23 15 3 -3 -4 -14 -15 -25z m-1259 5 c-5 -11 -1 -14
12 -9 15 5 16 4 4 -4 -8 -6 -17 -9 -21 -7 -3 3 -5 -6 -4 -20 3 -21 1 -23 -15
-13 -15 10 -16 14 -4 25 8 8 14 21 14 29 0 8 4 14 10 14 5 0 7 -7 4 -15z m490
4 c-4 -7 -44 0 -44 7 0 2 11 3 24 2 14 -1 23 -5 20 -9z m797 -12 c-10 -9 -11
-8 -5 6 3 10 9 15 12 12 3 -3 0 -11 -7 -18z m170 0 c-10 -9 -11 -8 -5 6 3 10
9 15 12 12 3 -3 0 -11 -7 -18z m-2116 3 c-3 -5 -12 -10 -18 -10 -7 0 -6 4 3
10 19 12 23 12 15 0z m2055 -5 c0 -2 -6 -5 -13 -8 -8 -3 -14 1 -14 8 0 7 6 11
14 8 7 -3 13 -6 13 -8z m164 7 c3 -5 -1 -9 -9 -9 -8 0 -12 4 -9 9 3 4 7 8 9 8
2 0 6 -4 9 -8z m-1476 -10 c18 -12 4 -42 -20 -42 -14 0 -18 -5 -13 -19 3 -12
0 -21 -10 -25 -9 -3 -14 -9 -11 -14 2 -4 -5 -14 -17 -21 -18 -11 -20 -11 -9 0
15 16 16 39 1 39 -5 0 -8 -4 -5 -9 3 -5 -1 -14 -9 -21 -27 -23 -26 -4 2 26 17
18 28 24 31 16 2 -7 8 -10 13 -7 5 4 3 12 -4 19 -6 8 -14 12 -17 11 -3 -2 -7
5 -7 16 -1 14 4 19 20 18 12 0 16 -3 10 -6 -23 -9 -14 -25 10 -18 36 12 42 24
16 34 -13 5 -17 10 -9 10 8 0 21 -3 28 -7z m-273 -17 c6 0 16 4 23 9 27 16 16
0 -25 -41 -24 -24 -43 -36 -43 -28 0 8 10 20 22 26 20 11 20 13 5 24 -9 6 -14
15 -10 19 4 3 9 3 12 -2 3 -4 11 -7 16 -7z m1475 0 c0 -2 -7 -5 -15 -9 -9 -3
-15 0 -15 9 0 9 6 12 15 9 8 -4 15 -7 15 -9z m-1935 -5 c3 -5 -1 -10 -10 -10
-9 0 -13 5 -10 10 3 6 8 10 10 10 2 0 7 -4 10 -10z m303 -7 c-2 -9 -14 -18
-27 -20 l-24 -3 24 20 c29 24 31 24 27 3z m72 7 c0 -5 -5 -10 -11 -10 -5 0 -7
5 -4 10 3 6 8 10 11 10 2 0 4 -4 4 -10z m154 -7 c4 -10 4 -14 0 -10 -4 4 -13
2 -20 -4 -8 -7 -14 -7 -19 1 -3 5 1 10 9 10 9 0 16 5 16 10 0 15 7 12 14 -7z
m1636 7 c0 -5 -5 -10 -11 -10 -5 0 -7 5 -4 10 3 6 8 10 11 10 2 0 4 -4 4 -10z
m-2233 -6 c-3 -3 -12 -4 -19 -1 -8 3 -5 6 6 6 11 1 17 -2 13 -5z m158 -20
c-17 -7 -34 -9 -40 -6 -5 4 2 8 18 10 15 2 25 8 22 13 -4 5 2 6 12 2 14 -6 13
-9 -12 -19z m786 -11 c-12 -20 -14 -14 -5 12 4 9 9 14 11 11 3 -2 0 -13 -6
-23z m-713 1 c-11 -11 -23 -14 -35 -9 -16 7 -15 9 7 15 40 12 45 11 28 -6z
m46 -11 c-4 -13 -12 -19 -19 -17 -11 5 -10 9 3 24 19 23 23 21 16 -7z m809 12
c4 -8 3 -16 -1 -19 -4 -3 -9 4 -9 15 -2 23 3 25 10 4z m1117 -5 c0 -5 -9 -14
-20 -20 -14 -7 -20 -7 -20 0 0 5 7 10 16 10 10 0 14 5 10 16 -3 8 -2 12 4 9 6
-3 10 -10 10 -15z m-1639 -32 c-10 -11 -11 -10 -6 5 4 10 2 17 -4 17 -6 0 -11
5 -11 12 0 8 6 6 17 -5 14 -14 15 -19 4 -29z m475 30 c4 -6 3 -8 -2 -5 -6 3
-15 -3 -22 -13 -9 -14 -8 -19 4 -24 10 -4 13 -2 8 6 -5 8 -2 9 10 5 10 -4 15
-3 11 3 -7 12 15 13 33 1 10 -6 5 -11 -17 -20 -16 -7 -34 -10 -40 -7 -5 4 -14
-1 -18 -9 -5 -9 -22 -18 -39 -21 -27 -5 -28 -4 -9 10 11 8 24 12 29 9 5 -4 6
-2 3 4 -6 9 27 73 37 73 3 0 8 -5 12 -12z m872 -13 c0 -17 -6 -25 -17 -24 -10
0 -12 2 -3 6 6 2 10 9 6 14 -5 8 2 29 10 29 2 0 4 -11 4 -25z m122 21 c0 -2
-7 -7 -16 -10 -8 -3 -12 -2 -9 4 6 10 25 14 25 6z m57 -21 c-7 -13 -14 -20
-15 -14 -2 5 2 16 8 24 18 21 20 18 7 -10z m-1757 5 c0 -5 -7 -10 -16 -10 -8
0 -12 5 -9 10 3 6 10 10 16 10 5 0 9 -4 9 -10z m97 3 c-9 -2 -14 -9 -11 -15 4
-7 2 -8 -5 -4 -15 10 -4 26 17 25 15 -1 15 -2 -1 -6z m-112 -31 c-7 -8 -35 7
-35 18 0 6 7 6 20 -2 10 -7 17 -14 15 -16z m67 6 c-7 -7 -12 -8 -12 -2 0 14
12 26 19 19 2 -3 -1 -11 -7 -17z m71 4 c-10 -10 -20 -17 -22 -16 -6 5 20 34
30 34 5 0 1 -8 -8 -18z m72 8 c-3 -5 -11 -10 -16 -10 -6 0 -7 5 -4 10 3 6 11
10 16 10 6 0 7 -4 4 -10z m130 0 c3 -5 1 -10 -4 -10 -6 0 -11 5 -11 10 0 6 2
10 4 10 3 0 8 -4 11 -10z m1475 6 c0 -3 -4 -8 -10 -11 -5 -3 -10 -1 -10 4 0 6
5 11 10 11 6 0 10 -2 10 -4z m-1180 -16 c0 -5 -8 -10 -17 -10 -15 0 -16 -2 -3
-10 9 -6 20 -5 30 3 11 8 10 6 -2 -7 -11 -13 -22 -16 -35 -11 -10 5 -21 7 -25
7 -5 -1 -8 5 -8 14 0 9 6 14 13 11 8 -3 20 -1 28 4 18 11 19 11 19 -1z m1266
-5 c-3 -20 -16 -31 -16 -13 0 13 8 28 16 28 1 0 1 -7 0 -15z m-1738 -20 c-3
-3 -9 2 -12 12 -6 14 -5 15 5 6 7 -7 10 -15 7 -18z m142 10 c-7 -8 -16 -12
-22 -9 -5 3 -17 0 -26 -8 -15 -12 -16 -11 -3 5 8 10 20 16 27 13 7 -3 16 -1
19 4 4 6 9 10 12 10 3 0 0 -7 -7 -15z m60 10 c0 -2 -10 -9 -22 -15 -22 -11
-22 -10 -4 4 21 17 26 19 26 11z m1290 1 c0 -3 -4 -8 -10 -11 -5 -3 -10 -1
-10 4 0 6 5 11 10 11 6 0 10 -2 10 -4z m430 -2 c0 -8 -19 -13 -24 -6 -3 5 1 9
9 9 8 0 15 -2 15 -3z m-213 -10 c-3 -3 -12 -4 -19 -1 -8 3 -5 6 6 6 11 1 17
-2 13 -5z m-1424 -23 c-3 -13 -10 -18 -20 -14 -14 5 -13 8 3 20 23 17 23 17
17 -6z m-216 2 c-4 -3 -1 -13 6 -22 11 -14 10 -14 -5 -2 -16 12 -16 31 -1 31
4 0 3 -3 0 -7z m371 -6 c17 -11 15 -27 -4 -27 -8 0 -12 4 -9 10 3 6 -1 7 -9 4
-9 -3 -14 -10 -11 -14 3 -5 0 -12 -6 -16 -7 -4 -9 -3 -5 4 4 7 -1 10 -14 9
-11 -1 -20 -5 -20 -10 0 -4 -4 -6 -9 -3 -5 3 -20 -4 -35 -15 -14 -11 -26 -16
-26 -11 0 13 41 39 74 48 14 3 29 11 33 17 4 6 1 7 -7 2 -9 -5 -11 -4 -6 3 7
12 33 12 54 -1z m1022 2 c-12 -9 -11 -10 7 -6 13 3 26 1 29 -5 4 -5 -5 -8 -22
-6 -31 3 -46 28 -17 28 15 0 16 -2 3 -11z m313 -14 c-3 -9 -8 -14 -10 -11 -3
3 -2 9 2 15 9 16 15 13 8 -4z m924 9 c-3 -3 -12 -4 -19 -1 -8 3 -5 6 6 6 11 1
17 -2 13 -5z m-1354 -19 c-3 -9 -8 -14 -10 -11 -3 3 -2 9 2 15 9 16 15 13 8
-4z m337 6 c0 -5 -7 -12 -16 -15 -14 -5 -15 -4 -4 9 14 17 20 19 20 6z m150
-1 c0 -5 -5 -10 -11 -10 -5 0 -7 5 -4 10 3 6 8 10 11 10 2 0 4 -4 4 -10z
m-1665 -9 c-3 -6 3 -14 12 -20 10 -6 14 -10 8 -11 -19 0 -38 18 -31 29 4 6 9
11 12 11 3 0 3 -4 -1 -9z m1120 -1 c-3 -5 -14 -10 -23 -10 -15 0 -15 2 -2 10
20 13 33 13 25 0z m325 0 c0 -5 -5 -10 -11 -10 -5 0 -7 5 -4 10 3 6 8 10 11
10 2 0 4 -4 4 -10z m-139 -23 c-8 -8 -14 -7 -23 2 -11 10 -9 11 6 5 15 -6 17
-4 11 6 -6 9 -4 11 4 5 9 -5 10 -10 2 -18z m259 13 c0 -5 6 -7 14 -4 18 7 15
-21 -4 -39 -7 -6 -10 -7 -7 -1 4 6 0 19 -7 30 -12 16 -16 17 -32 4 -17 -14
-18 -14 -5 3 14 18 41 23 41 7z m-300 -26 c0 -8 -7 -14 -16 -14 -13 0 -14 3
-5 13 6 8 7 18 3 22 -4 5 -1 5 6 1 6 -4 12 -14 12 -22z m130 -4 c-6 -11 -16
-20 -22 -20 -6 0 -3 9 7 20 10 11 20 20 22 20 2 0 -1 -9 -7 -20z m-1220 -10
c0 -5 -5 -9 -12 -7 -7 1 -12 -3 -13 -10 0 -17 -12 -26 -25 -18 -6 4 -2 13 12
25 26 22 38 25 38 10z m1267 -15 c0 -8 -4 -12 -9 -9 -5 3 -6 10 -3 15 9 13 12
11 12 -6z m283 -26 c0 -5 -4 -9 -10 -9 -5 0 -10 7 -10 16 0 8 5 12 10 9 6 -3
10 -10 10 -16z m937 -111 c-3 -7 -5 -2 -5 12 0 14 2 19 5 13 2 -7 2 -19 0 -25z
m12 -56 c0 -24 -1 -25 -9 -7 -12 28 -12 47 0 40 6 -3 10 -18 9 -33z m-31 -41
c10 -6 6 -16 -19 -41 -19 -19 -35 -28 -37 -21 -3 9 -7 9 -18 0 -24 -20 -15 -2
18 35 34 39 36 40 56 27z m-1098 -5 c0 -3 -4 -8 -10 -11 -5 -3 -10 -1 -10 4 0
6 5 11 10 11 6 0 10 -2 10 -4z m985 -96 c-3 -5 -11 -10 -16 -10 -6 0 -7 5 -4
10 3 6 11 10 16 10 6 0 7 -4 4 -10z m99 -61 c-6 -11 -24 -2 -24 11 0 5 7 7 15
4 8 -4 12 -10 9 -15z m-5 -138 c9 -16 7 -17 -14 -13 -30 5 -42 32 -15 32 11 0
24 -8 29 -19z m-3342 -87 c-9 -9 -28 6 -21 18 4 6 10 6 17 -1 6 -6 8 -13 4
-17z m69 2 c10 -8 16 -17 12 -21 -8 -8 -48 13 -48 25 0 14 13 12 36 -4z m-96
-41 c0 -32 32 -49 78 -40 30 5 34 4 24 -7 -8 -10 -40 -15 -107 -16 -80 -2 -95
0 -95 14 0 29 21 54 45 54 13 0 27 5 30 10 11 18 25 10 25 -15z m3357 -7 c-3
-8 -6 -5 -6 6 -1 11 2 17 5 13 3 -3 4 -12 1 -19z m-849 -65 c-4 -22 -22 -20
-26 1 -2 10 3 16 13 16 10 0 15 -7 13 -17z m563 -3 c35 0 39 -24 8 -41 -16 -8
-23 -8 -29 0 -4 7 -25 10 -53 7 -26 -2 -50 1 -53 6 -4 6 -28 8 -58 5 -28 -3
-43 -3 -33 0 9 2 17 8 17 13 0 13 47 19 114 14 32 -2 72 -4 87 -4z m-531 -24
c0 -3 -4 -8 -10 -11 -5 -3 -10 -1 -10 4 0 6 5 11 10 11 6 0 10 -2 10 -4z m-16
-41 c7 -18 -5 -20 -22 -3 -7 7 -12 8 -12 2 0 -5 5 -15 12 -22 9 -9 9 -18 -1
-38 -15 -33 -17 -31 -25 29 -7 45 -6 47 17 47 14 0 27 -7 31 -15z m31 -15 c3
-5 1 -10 -4 -10 -6 0 -11 5 -11 10 0 6 2 10 4 10 3 0 8 -4 11 -10z m-108 -32
c-3 -7 -5 -2 -5 12 0 14 2 19 5 13 2 -7 2 -19 0 -25z m313 22 c0 -5 -7 -10
-15 -10 -8 0 -15 5 -15 10 0 6 7 10 15 10 8 0 15 -4 15 -10z m8 -80 c-5 -45
-3 -50 13 -45 24 8 34 -12 11 -24 -28 -15 -59 16 -65 66 -6 47 -2 53 26 53 17
0 19 -5 15 -50z m-1379 -63 c1 -70 15 -92 45 -68 7 6 16 8 19 4 4 -3 13 0 22
7 10 8 15 9 15 1 0 -6 9 -11 20 -11 14 0 20 -7 20 -21 0 -17 -5 -20 -24 -17
-15 3 -27 -1 -35 -13 -8 -14 -22 -18 -56 -17 -48 2 -56 11 -27 27 12 8 14 13
6 18 -16 11 -39 155 -30 179 8 18 8 18 16 -1 5 -11 9 -51 9 -88z m1074 23 c3
-11 1 -18 -4 -14 -5 3 -9 12 -9 20 0 20 7 17 13 -6z m444 8 c-2 -7 -15 -11
-28 -9 -13 2 -29 4 -36 5 -35 6 -20 16 21 16 34 0 46 -4 43 -12z m-212 -18
c-3 -5 -10 -10 -16 -10 -5 0 -9 5 -9 10 0 6 7 10 16 10 8 0 12 -4 9 -10z
m-125 -64 c0 -3 -11 -16 -23 -30 -25 -27 -37 -25 -37 5 0 16 7 19 53 28 4 0 7
-1 7 -3z m-1243 -41 c9 -25 -2 -27 -28 -6 l-24 20 23 1 c12 0 25 -7 29 -15z
m1410 9 c-3 -3 -12 -4 -19 -1 -8 3 -5 6 6 6 11 1 17 -2 13 -5z m152 -38 c9
-11 7 -15 -11 -20 -55 -14 -99 -2 -83 24 9 15 81 12 94 -4z m-142 -2 c-3 -3
-12 -4 -19 -1 -8 3 -5 6 6 6 11 1 17 -2 13 -5z m-1403 -13 c3 -5 -3 -11 -14
-14 -20 -5 -35 5 -23 17 9 9 31 7 37 -3z m181 -32 c3 -4 1 -10 -5 -14 -13 -8
-52 13 -45 25 6 9 43 2 50 -11z m-145 1 c0 -5 -2 -10 -4 -10 -3 0 -8 5 -11 10
-3 6 -1 10 4 10 6 0 11 -4 11 -10z m314 -27 c-9 -35 -26 -47 -37 -27 -6 10 -3
22 9 35 24 27 36 24 28 -8z m-234 -6 c0 -8 9 -22 20 -32 11 -10 20 -24 20 -32
0 -18 -27 -16 -34 3 -3 8 -10 13 -15 10 -5 -3 -11 10 -13 29 -3 24 0 35 9 35
7 0 13 -6 13 -13z m1381 -2 c-18 -8 -38 -15 -45 -14 -15 1 46 28 64 28 8 0 0
-6 -19 -14z m302 -48 c-4 -6 -10 -1 -15 12 -4 13 -5 28 -1 34 4 6 10 1 15 -12
4 -13 5 -28 1 -34z m37 23 c0 -5 -4 -10 -10 -10 -5 0 -10 5 -10 10 0 6 5 10
10 10 6 0 10 -4 10 -10z m-436 -16 c-10 -8 -13 -13 -6 -9 8 4 12 -2 12 -19 0
-23 -4 -26 -35 -26 -21 0 -35 5 -35 13 0 9 -3 8 -9 -2 -6 -9 -18 -11 -35 -7
-31 8 -26 26 7 26 12 0 40 9 62 19 50 24 65 26 39 5z m253 -16 c-3 -12 0 -15
11 -11 10 4 13 2 8 -5 -11 -18 -36 -14 -36 6 0 14 -2 15 -10 2 -9 -13 -10 -13
-11 0 0 10 -3 8 -9 -5 -8 -19 -9 -19 -9 3 -1 15 -7 22 -20 22 -13 0 -21 -8
-23 -22 -2 -16 -9 -22 -20 -20 -10 2 -18 -1 -18 -7 0 -5 -9 -7 -20 -4 -11 3
-20 10 -20 17 0 6 -5 4 -10 -4 -8 -13 -10 -13 -10 2 0 9 -6 19 -12 21 -7 3 -2
6 12 7 37 3 54 -1 62 -13 5 -8 8 -6 8 5 0 20 18 25 83 24 40 -1 47 -4 44 -18z
m77 -2 c-3 -9 -16 -16 -28 -15 -21 0 -21 0 2 11 12 6 22 16 22 21 0 6 2 8 5 5
3 -3 3 -13 -1 -22z m33 10 c-3 -8 -1 -17 6 -19 7 -3 2 -5 -9 -4 -18 1 -20 4
-10 19 13 22 20 24 13 4z m-1404 -10 c4 -9 -3 -16 -19 -19 -26 -5 -39 6 -29
23 9 15 42 12 48 -4z m1227 -10 c0 -8 -4 -18 -10 -21 -5 -3 -10 3 -10 14 0 12
5 21 10 21 6 0 10 -6 10 -14z m-3015 -36 c17 -7 14 -9 -13 -9 -20 -1 -31 3
-27 9 7 12 13 12 40 0z m2045 -31 c0 -5 -7 -9 -15 -9 -15 0 -20 12 -9 23 8 8
24 -1 24 -14z m740 11 c-13 -8 -12 -10 3 -10 9 0 17 -3 17 -7 0 -15 -108 -2
-114 13 -4 11 7 14 52 14 40 0 53 -3 42 -10z m-696 -35 c-22 -17 -44 -19 -44
-5 0 5 6 7 14 4 8 -3 17 -1 21 5 3 6 11 11 18 11 6 0 2 -7 -9 -15z m-954 1 c0
-3 -23 -12 -50 -21 -28 -9 -64 -28 -80 -42 -31 -25 -61 -24 -39 3 6 8 8 14 3
14 -10 1 49 28 86 40 27 9 80 13 80 6z m340 -6 c0 -5 -4 -10 -10 -10 -5 0 -10
5 -10 10 0 6 5 10 10 10 6 0 10 -4 10 -10z m1230 0 c0 -5 -20 -10 -45 -10 -25
0 -45 5 -45 10 0 6 20 10 45 10 25 0 45 -4 45 -10z m-2690 -4 c0 -11 -19 -15
-25 -6 -3 5 1 10 9 10 9 0 16 -2 16 -4z m2115 -6 c19 -8 19 -9 -2 -9 -12 -1
-25 4 -28 9 -7 12 2 12 30 0z m-2147 -18 c2 -7 -2 -10 -12 -6 -9 3 -16 11 -16
16 0 13 23 5 28 -10z m2770 1 c3 -10 -14 -13 -65 -13 -52 1 -64 3 -50 11 10 6
24 9 30 6 7 -2 21 -1 32 4 26 10 47 7 53 -8z m-606 -9 c10 -10 -4 -44 -18 -44
-8 0 -14 5 -14 11 0 6 -20 9 -52 8 -55 -3 -81 16 -31 24 45 7 109 7 115 1z
m-619 -23 c-2 -6 11 -11 33 -11 19 0 33 -4 29 -9 -5 -9 -195 -4 -204 5 -10 10
15 19 67 25 67 7 78 5 75 -10z m-1182 -14 c-13 -13 -26 -3 -16 12 3 6 11 8 17
5 6 -4 6 -10 -1 -17z m2429 -17 c0 -38 -2 -40 -30 -40 -16 0 -30 -4 -30 -10 0
-5 -4 -10 -10 -10 -5 0 -10 9 -10 20 0 11 -4 20 -10 20 -5 0 -10 5 -10 10 0 6
8 10 19 10 10 0 21 9 24 20 3 14 14 20 31 20 24 0 26 -4 26 -40z m-2476 24 c9
-3 14 -10 11 -15 -7 -10 -35 0 -35 12 0 11 3 11 24 3z m1351 -4 c3 -5 1 -10
-4 -10 -6 0 -11 5 -11 10 0 6 2 10 4 10 3 0 8 -4 11 -10z m-745 -26 c0 -9 -5
-14 -12 -12 -18 6 -21 28 -4 28 9 0 16 -7 16 -16z m1630 -22 c-7 -3 -16 2 -21
9 -16 25 -9 32 12 13 13 -12 16 -20 9 -22z m-397 -9 c-1 -23 3 -33 13 -33 8 0
14 7 14 15 0 16 25 21 34 7 16 -27 -44 -50 -144 -56 -47 -3 -102 -8 -124 -12
-31 -6 -38 -4 -34 7 3 9 26 17 59 20 112 14 169 22 169 25 0 25 -16 29 -113
26 -56 -2 -98 0 -94 5 9 9 143 29 192 28 28 0 30 -3 28 -32z m532 0 c5 -18 3
-22 -10 -17 -22 9 -38 41 -22 47 15 6 23 -2 32 -30z m-1165 11 c0 -9 -7 -14
-17 -12 -25 5 -28 28 -4 28 12 0 21 -6 21 -16z m860 6 c0 -5 -4 -10 -10 -10
-5 0 -10 5 -10 10 0 6 5 10 10 10 6 0 10 -4 10 -10z m-660 -32 c-23 -8 -40 -3
-40 12 0 13 33 18 48 6 11 -8 9 -12 -8 -18z m175 13 c-16 -15 -67 -17 -72 -3
-3 8 8 12 38 12 27 0 39 -4 34 -9z m385 -6 c15 -18 5 -35 -21 -35 -24 0 -37
29 -18 41 19 12 25 11 39 -6z m80 -11 c14 -35 13 -36 -10 -22 -11 7 -20 18
-20 25 0 6 -6 14 -12 16 -7 3 -3 6 10 6 15 1 26 -7 32 -25z m-570 6 c0 -13
-11 -13 -30 0 -12 8 -11 10 8 10 12 0 22 -4 22 -10z m750 -28 c17 -18 18 -22
5 -22 -8 0 -15 -4 -15 -9 0 -4 -24 -3 -53 4 -33 8 -60 9 -70 4 -10 -6 -18 -5
-23 3 -4 6 -2 14 4 16 7 2 12 11 12 19 0 25 114 13 140 -15z m-1537 11 c-7 -2
-19 -2 -25 0 -7 3 -2 5 12 5 14 0 19 -2 13 -5z m1769 -39 c3 -2 5 -12 3 -22
-2 -9 -4 -29 -4 -44 -1 -25 -5 -28 -33 -28 -27 1 -30 2 -15 11 21 12 21 25 2
63 -8 15 -15 30 -15 32 0 4 50 -6 62 -12z m-522 2 c0 -2 -7 -7 -16 -10 -8 -3
-12 -2 -9 4 6 10 25 14 25 6z m-140 -20 c0 -2 -7 -6 -15 -10 -8 -3 -15 -1 -15
4 0 6 7 10 15 10 8 0 15 -2 15 -4z m40 -6 c0 -5 -7 -7 -15 -4 -8 4 -15 8 -15
10 0 2 7 4 15 4 8 0 15 -4 15 -10z m-350 -4 c0 -11 -19 -15 -25 -6 -3 5 1 10
9 10 9 0 16 -2 16 -4z m103 -3 c-19 -3 -39 -14 -48 -26 -8 -12 -15 -19 -15
-15 0 3 -3 13 -6 21 -6 18 14 25 66 24 l35 0 -32 -4z m-203 -38 c0 -2 -10 -9
-22 -15 -22 -11 -22 -10 -4 4 21 17 26 19 26 11z m37 -1 c-3 -3 -12 -4 -19 -1
-8 3 -5 6 6 6 11 1 17 -2 13 -5z m-79 -51 c2 -8 -5 -13 -17 -13 -21 0 -35 13
-24 24 10 10 36 3 41 -11z m737 -83 c3 -5 -1 -10 -10 -10 -9 0 -13 5 -10 10 3
6 8 10 10 10 2 0 7 -4 10 -10z m235 6 c0 -11 -19 -15 -25 -6 -3 5 1 10 9 10 9
0 16 -2 16 -4z m-1149 -22 c12 -14 11 -16 -5 -13 -11 2 -21 10 -24 17 -5 17
13 15 29 -4z m86 -10 c-9 -9 -28 6 -21 18 4 6 10 6 17 -1 6 -6 8 -13 4 -17z
m108 6 c8 -13 -15 -13 -35 0 -12 8 -11 10 7 10 12 0 25 -4 28 -10z m725 -10
c0 -5 -7 -10 -16 -10 -8 0 -12 5 -9 10 3 6 10 10 16 10 5 0 9 -4 9 -10z m-920
-20 c0 -5 -7 -10 -16 -10 -8 0 -12 5 -9 10 3 6 10 10 16 10 5 0 9 -4 9 -10z
m729 -107 c0 -31 -2 -34 -9 -18 -12 28 -12 55 0 55 6 0 10 -17 9 -37z m-736 5
c8 -28 4 -32 -22 -23 -17 5 -19 9 -8 26 15 25 23 24 30 -3z m82 12 c3 -5 1
-10 -4 -10 -6 0 -11 5 -11 10 0 6 2 10 4 10 3 0 8 -4 11 -10z m-195 -4 c0 -3
-4 -8 -10 -11 -5 -3 -10 -1 -10 4 0 6 5 11 10 11 6 0 10 -2 10 -4z m529 -21
c58 -8 107 -18 110 -21 3 -3 -19 -2 -49 3 -30 4 -144 8 -252 8 -108 0 -191 3
-185 7 7 4 20 5 30 2 10 -3 23 -1 30 4 26 22 162 21 316 -3z m-511 -46 c-24
-13 -71 -14 -75 -1 -7 18 38 31 65 19 17 -8 19 -13 10 -18z m57 13 c-3 -3 -11
0 -18 7 -9 10 -8 11 6 5 10 -3 15 -9 12 -12z m630 -2 c25 -11 -1 -11 -35 0
-20 6 -21 8 -5 8 11 0 29 -3 40 -8z m80 0 c4 -6 -5 -10 -19 -10 -14 0 -26 5
-26 10 0 6 9 10 19 10 11 0 23 -4 26 -10z m-1084 -53 c-1 -12 -15 -9 -19 4 -3
6 1 10 8 8 6 -3 11 -8 11 -12z m174 4 c11 -18 -29 -30 -54 -16 -18 9 -20 14
-10 18 23 9 57 8 64 -2z m-180 -51 c-3 -5 -10 -10 -16 -10 -5 0 -9 5 -9 10 0
6 7 10 16 10 8 0 12 -4 9 -10z"/>
<path d="M2270 3094 c0 -8 5 -12 10 -9 6 4 8 11 5 16 -9 14 -15 11 -15 -7z"/>
<path d="M1390 3080 c0 -5 5 -10 11 -10 5 0 7 5 4 10 -3 6 -8 10 -11 10 -2 0
-4 -4 -4 -10z"/>
<path d="M1555 3070 c-10 -11 -15 -23 -10 -28 4 -4 10 -1 12 6 4 10 9 9 24 -4
14 -13 16 -20 8 -31 -9 -9 -9 -13 0 -13 12 0 12 1 16 38 2 15 -3 21 -13 20 -8
-2 -17 3 -19 10 -4 9 1 10 20 3 14 -5 27 -7 30 -5 3 3 8 1 12 -5 3 -6 2 -11
-2 -11 -5 0 -9 -9 -9 -20 0 -27 5 -25 16 6 9 23 12 24 27 13 9 -8 14 -9 10 -2
-4 6 -2 14 3 16 6 3 5 4 -2 3 -7 -2 -30 3 -52 10 -49 18 -50 18 -71 -6z"/>
<path d="M1766 3075 c4 -8 11 -15 16 -15 6 0 5 6 -2 15 -7 8 -14 15 -16 15 -2
0 -1 -7 2 -15z"/>
<path d="M2231 3074 c0 -11 3 -14 6 -6 3 7 2 16 -1 19 -3 4 -6 -2 -5 -13z"/>
<path d="M1761 3041 c-8 -6 -9 -11 -3 -15 6 -3 14 -1 17 5 9 14 2 20 -14 10z"/>
<path d="M1517 3011 c-4 -17 -3 -21 5 -13 5 5 8 16 6 23 -3 8 -7 3 -11 -10z"/>
<path d="M1546 3022 c-3 -5 1 -9 9 -9 8 0 12 4 9 9 -3 4 -7 8 -9 8 -2 0 -6 -4
-9 -8z"/>
<path d="M1436 3011 c-4 -6 -4 -15 -1 -21 8 -14 32 -13 41 2 4 6 3 8 -4 4 -6
-3 -15 1 -20 10 -6 11 -11 13 -16 5z"/>
<path d="M2281 2994 c0 -11 3 -14 6 -6 3 7 2 16 -1 19 -3 4 -6 -2 -5 -13z"/>
<path d="M1607 2991 c-20 -7 -21 -15 -6 -44 6 -10 15 -15 20 -11 6 3 8 9 5 12
-3 3 2 15 11 26 18 21 18 21 -4 2 -24 -20 -32 -9 -11 12 13 13 11 14 -15 3z"/>
<path d="M1540 2965 c-11 -13 -10 -14 4 -9 9 3 16 10 16 15 0 13 -6 11 -20 -6z"/>
<path d="M1450 2961 c-8 -6 -18 -7 -22 -5 -4 3 -8 -2 -8 -10 0 -21 7 -20 37 4
26 20 21 28 -7 11z"/>
<path d="M2050 2955 c-7 -9 -8 -15 -2 -15 5 0 12 7 16 15 3 8 4 15 2 15 -2 0
-9 -7 -16 -15z"/>
<path d="M1373 2944 c0 -9 5 -10 19 -3 10 5 18 12 18 14 0 2 -8 3 -18 2 -10 0
-19 -7 -19 -13z"/>
<path d="M1484 2947 c-11 -6 -28 -24 -37 -40 -17 -28 -16 -29 0 -22 10 4 23 8
29 8 6 0 11 6 11 13 0 7 -7 10 -16 7 -12 -3 -11 -1 3 11 10 8 23 13 27 10 5
-3 9 2 9 10 0 9 -1 15 -2 15 -2 -1 -12 -6 -24 -12z"/>
<path d="M1562 2934 c-11 -12 -8 -14 15 -14 15 0 24 4 18 8 -5 4 -12 10 -15
14 -3 3 -11 0 -18 -8z"/>
<path d="M2207 2944 c7 -3 9 -12 6 -20 -3 -8 -1 -14 5 -14 17 0 22 28 6 34
-19 7 -34 7 -17 0z"/>
<path d="M1519 2923 c-13 -16 -12 -17 4 -4 9 7 17 15 17 17 0 8 -8 3 -21 -13z"/>
<path d="M1673 2925 c0 -8 4 -12 9 -9 5 3 6 10 3 15 -9 13 -12 11 -12 -6z"/>
<path d="M2000 2895 c-19 -19 -28 -35 -21 -35 8 0 11 -7 8 -20 -3 -11 -2 -20
3 -20 4 0 5 -11 2 -25 -2 -15 -9 -22 -16 -18 -6 4 -6 0 2 -9 7 -9 14 -30 15
-47 1 -19 6 -29 14 -27 7 3 10 -1 6 -9 -3 -8 0 -29 6 -47 8 -24 8 -34 0 -42
-9 -8 -10 -6 -6 7 4 9 2 17 -4 17 -7 0 -9 -10 -5 -24 4 -16 1 -26 -9 -30 -8
-3 -15 -13 -15 -22 0 -13 3 -14 15 -4 12 10 14 8 10 -12 -4 -23 -4 -23 11 -3
8 11 13 28 11 37 -3 9 -1 18 4 20 5 2 11 20 14 40 3 21 10 57 16 80 6 24 14
67 16 96 3 28 8 52 12 52 4 0 13 -18 20 -39 8 -27 24 -49 53 -70 46 -34 61
-35 66 -4 2 17 -2 19 -26 15 -32 -4 -72 12 -72 29 0 6 5 7 12 3 7 -4 8 -3 4 5
-4 6 -12 8 -18 5 -6 -4 -8 -2 -4 4 3 6 2 21 -3 34 -11 30 -3 78 14 78 20 0 23
-21 8 -52 -17 -33 -7 -58 12 -31 9 13 10 22 3 30 -8 10 -5 13 10 13 35 0 33
26 -5 44 -38 18 -53 14 -53 -15 0 -24 -20 -26 -20 -1 -1 16 -1 16 -14 -1 -10
-13 -15 -15 -19 -5 -2 7 -8 9 -13 5 -5 -4 -2 -12 5 -16 9 -6 10 -11 2 -15 -12
-8 -26 37 -16 53 11 19 1 12 -35 -24z m90 -24 c0 -6 -5 -13 -11 -17 -6 -3 -20
-20 -31 -38 -17 -27 -19 -28 -12 -6 13 47 54 93 54 61z"/>
<path d="M2263 2913 c15 -2 37 -2 50 0 12 2 0 4 -28 4 -27 0 -38 -2 -22 -4z"/>
<path d="M1560 2900 c0 -5 5 -10 11 -10 5 0 7 5 4 10 -3 6 -8 10 -11 10 -2 0
-4 -4 -4 -10z"/>
<path d="M1620 2900 c8 -5 20 -10 25 -10 6 0 3 5 -5 10 -8 5 -19 10 -25 10 -5
0 -3 -5 5 -10z"/>
<path d="M1755 2900 c-3 -5 1 -10 10 -10 9 0 13 5 10 10 -3 6 -8 10 -10 10 -2
0 -7 -4 -10 -10z"/>
<path d="M1975 2900 c-3 -5 -1 -10 4 -10 6 0 11 5 11 10 0 6 -2 10 -4 10 -3 0
-8 -4 -11 -10z"/>
<path d="M1390 2890 c0 -5 5 -10 11 -10 5 0 7 5 4 10 -3 6 -8 10 -11 10 -2 0
-4 -4 -4 -10z"/>
<path d="M1790 2890 c0 -5 5 -10 11 -10 5 0 7 5 4 10 -3 6 -8 10 -11 10 -2 0
-4 -4 -4 -10z"/>
<path d="M1759 2863 c7 -14 8 -24 1 -28 -5 -3 -10 -1 -10 4 0 6 -4 11 -10 11
-5 0 -7 -7 -3 -16 4 -10 1 -14 -8 -12 -8 2 -16 -1 -17 -6 -1 -6 5 -11 14 -12
26 -4 26 -9 -1 -38 -14 -15 -22 -32 -19 -38 5 -7 13 -4 24 10 10 12 20 19 23
15 3 -3 4 8 3 23 -2 17 5 41 16 57 11 16 17 31 14 34 -3 4 -6 0 -6 -7 0 -9 -5
-7 -16 6 -15 18 -15 18 -5 -3z"/>
<path d="M2202 2855 c-6 -14 -8 -25 -3 -25 8 0 23 41 17 47 -1 2 -8 -8 -14
-22z"/>
<path d="M1526 2862 c-3 -5 1 -9 9 -9 8 0 12 4 9 9 -3 4 -7 8 -9 8 -2 0 -6 -4
-9 -8z"/>
<path d="M1551 2838 c-6 -10 -9 -18 -6 -18 3 0 15 8 26 18 13 13 15 19 5 19
-7 0 -18 -9 -25 -19z"/>
<path d="M1616 2845 c5 -12 4 -16 -3 -12 -8 5 -10 -4 -6 -25 5 -36 13 -51 13
-25 0 8 8 18 18 20 12 3 11 5 -6 6 -13 0 -20 5 -17 11 4 6 11 8 16 5 15 -10
10 12 -6 25 -13 11 -14 10 -9 -5z"/>
<path d="M1696 2852 c-3 -5 1 -9 9 -9 8 0 12 4 9 9 -3 4 -7 8 -9 8 -2 0 -6 -4
-9 -8z"/>
<path d="M1436 2833 c-6 -16 9 -33 29 -33 6 1 2 5 -7 11 -10 5 -15 16 -12 24
4 8 4 15 1 15 -3 0 -8 -8 -11 -17z"/>
<path d="M1378 2828 c9 -9 15 -9 24 0 9 9 7 12 -12 12 -19 0 -21 -3 -12 -12z"/>
<path d="M1516 2828 c5 -8 0 -9 -14 -6 -12 4 -22 5 -22 3 0 -8 64 -34 69 -29
3 4 0 9 -6 11 -7 3 -13 11 -13 19 0 8 -5 14 -11 14 -5 0 -7 -5 -3 -12z"/>
<path d="M1658 2834 c-4 -4 -5 -11 -2 -15 7 -13 34 -11 34 2 0 5 -4 8 -9 5 -5
-4 -11 -1 -13 5 -2 5 -7 7 -10 3z"/>
<path d="M1790 2831 c0 -6 4 -12 8 -15 5 -3 9 1 9 9 0 8 -4 15 -9 15 -4 0 -8
-4 -8 -9z"/>
<path d="M1920 2830 c0 -5 5 -10 10 -10 6 0 10 5 10 10 0 6 -4 10 -10 10 -5 0
-10 -4 -10 -10z"/>
<path d="M1896 2805 c-3 -9 2 -13 15 -12 22 2 25 13 5 20 -8 3 -17 0 -20 -8z"/>
<path d="M1376 2802 c-3 -5 1 -9 9 -9 8 0 15 4 15 9 0 4 -4 8 -9 8 -6 0 -12
-4 -15 -8z"/>
<path d="M1770 2806 c0 -3 7 -12 16 -20 12 -13 13 -16 1 -16 -7 0 -14 -7 -14
-15 0 -13 3 -13 19 2 17 15 17 17 2 35 -17 18 -24 22 -24 14z"/>
<path d="M1945 2793 c-14 -33 -13 -42 3 -35 11 4 12 7 3 10 -9 3 -8 9 5 23 9
10 12 19 7 19 -6 0 -14 -8 -18 -17z"/>
<path d="M1490 2789 c0 -5 -4 -7 -10 -4 -5 3 -10 1 -10 -5 0 -7 7 -9 16 -6 9
3 20 6 25 6 5 0 9 5 9 10 0 6 -7 10 -15 10 -8 0 -15 -5 -15 -11z"/>
<path d="M2198 2793 c7 -3 16 -2 19 1 4 3 -2 6 -13 5 -11 0 -14 -3 -6 -6z"/>
<path d="M1675 2780 c-3 -5 -1 -10 4 -10 6 0 11 5 11 10 0 6 -2 10 -4 10 -3 0
-8 -4 -11 -10z"/>
<path d="M1517 2749 c-9 -5 -21 -8 -26 -4 -5 3 -13 0 -17 -6 -4 -8 -3 -9 4 -5
21 13 13 -7 -15 -38 -22 -24 -22 -26 -4 -11 13 11 25 19 27 18 13 -8 23 -1 17
13 -4 10 1 17 16 21 11 3 21 9 21 14 0 11 -1 11 -23 -2z"/>
<path d="M1941 2731 c-8 -5 -11 -16 -7 -26 7 -19 27 -16 35 6 4 12 2 12 -12 0
-10 -8 -17 -9 -17 -3 0 6 8 16 18 21 9 6 13 10 7 11 -5 0 -16 -4 -24 -9z"/>
<path d="M1433 2709 c-2 -23 3 -25 10 -4 4 8 3 16 -1 19 -4 3 -9 -4 -9 -15z"/>
<path d="M1883 2712 c-17 -13 -20 -20 -12 -32 9 -12 10 -12 5 4 -5 16 -2 17
21 12 19 -4 23 -4 14 3 -7 5 -10 14 -7 20 10 15 5 14 -21 -7z"/>
<path d="M1599 2708 c-6 -19 -4 -58 4 -58 5 0 7 6 4 14 -3 7 -1 18 5 24 6 6 6
12 -1 16 -6 4 -11 6 -12 4z"/>
<path d="M1686 2693 c-6 -14 -5 -15 5 -6 7 7 10 15 7 18 -3 3 -9 -2 -12 -12z"/>
<path d="M1836 2695 c-3 -8 -13 -15 -21 -15 -9 0 -13 5 -10 10 3 6 -1 10 -10
10 -8 0 -18 -7 -21 -15 -4 -8 -12 -15 -19 -15 -28 0 -22 -15 6 -16 25 -1 29 2
24 20 -3 12 -2 15 1 9 3 -7 15 -13 26 -13 20 0 20 -1 5 -18 -18 -20 -13 -32
12 -31 12 0 11 3 -4 9 -17 7 -17 9 -2 9 15 1 22 12 18 34 -1 5 3 6 8 3 5 -3 7
3 4 14 -6 24 -9 25 -17 5z"/>
<path d="M2520 2694 c0 -8 5 -12 10 -9 6 4 8 11 5 16 -9 14 -15 11 -15 -7z"/>
<path d="M1534 2679 c0 -12 4 -15 10 -9 14 14 26 12 26 -5 0 -8 -5 -15 -11
-15 -6 0 -9 -7 -5 -15 3 -8 0 -15 -6 -15 -9 0 -9 -3 0 -12 16 -16 22 -8 25 37
2 29 -2 39 -18 45 -16 6 -21 4 -21 -11z"/>
<path d="M1710 2671 c-5 -11 -10 -30 -11 -43 0 -13 -3 -17 -6 -9 -5 11 -7 11
-14 0 -8 -12 -11 -12 -18 1 -5 8 -7 18 -5 22 3 4 0 8 -5 8 -6 0 -11 -5 -11
-11 0 -6 -12 -9 -27 -7 -22 2 -29 -1 -31 -19 -2 -12 -11 -24 -20 -26 -9 -3 -2
-4 16 -4 33 1 58 17 28 17 -9 0 -16 4 -16 9 0 7 35 8 63 3 17 -4 5 -32 -13
-32 -11 0 -20 -5 -20 -11 0 -8 -4 -8 -15 1 -12 10 -13 7 -5 -18 4 -17 7 -32 5
-34 -2 -2 5 -4 15 -5 11 -1 22 3 26 8 3 6 -1 9 -9 7 -9 -2 -16 2 -16 7 0 6 9
9 19 7 11 -2 20 1 20 7 0 6 -7 8 -15 5 -8 -4 -15 -1 -15 4 0 6 10 12 23 14 12
2 22 10 22 18 0 8 6 16 13 16 6 1 16 2 22 3 5 0 7 7 4 14 -3 9 7 12 38 11 25
-1 31 0 13 2 -53 8 -57 12 -45 34 6 11 8 20 6 20 -3 0 -10 -9 -16 -19z"/>
<path d="M1416 2665 c-6 -16 -9 -17 -16 -5 -6 9 -10 10 -10 3 0 -6 4 -14 8
-17 13 -8 35 10 30 25 -3 9 -7 7 -12 -6z"/>
<path d="M1908 2662 c2 -8 8 -9 11 -4 3 5 14 8 23 6 10 -1 20 1 22 5 3 4 -10
7 -29 7 -24 0 -31 -4 -27 -14z"/>
<path d="M1975 2660 c-3 -5 -16 -10 -28 -11 -18 -1 -16 -2 7 -10 17 -4 32 -6
35 -4 2 3 -2 5 -9 5 -9 0 -7 5 6 15 10 8 14 15 7 15 -6 0 -15 -4 -18 -10z"/>
<path d="M2540 2660 c-11 -7 -5 -10 23 -10 23 0 36 4 32 10 -8 13 -35 13 -55
0z"/>
<path d="M1475 2651 c-3 -5 4 -13 16 -16 17 -6 19 -9 8 -16 -12 -7 -12 -9 0
-9 8 0 11 -7 8 -19 -6 -25 57 -56 74 -35 9 11 5 14 -25 14 -28 0 -36 4 -36 18
0 14 2 15 10 2 7 -10 10 -11 10 -2 0 7 -6 15 -14 18 -8 3 -12 12 -9 20 3 9 -1
14 -12 14 -9 0 -13 5 -10 10 3 6 2 10 -4 10 -5 0 -12 -4 -16 -9z"/>
<path d="M1850 2640 c0 -11 4 -20 10 -20 5 0 7 7 4 15 -5 11 -2 13 10 9 19 -7
20 -15 4 -34 -11 -12 -10 -12 4 -1 24 18 19 47 -9 49 -17 1 -23 -3 -23 -18z"/>
<path d="M1916 2603 c7 -37 14 -42 14 -10 0 14 -4 28 -9 32 -6 3 -8 -6 -5 -22z"/>
<path d="M1243 2606 c-13 -6 -23 -18 -23 -28 0 -9 -8 -21 -17 -27 -10 -5 -15
-12 -11 -16 8 -8 48 26 48 41 0 7 11 15 25 18 14 4 23 11 20 16 -7 12 -13 11
-42 -4z"/>
<path d="M1730 2599 c0 -5 5 -7 10 -4 6 3 10 8 10 11 0 2 -4 4 -10 4 -5 0 -10
-5 -10 -11z"/>
<path d="M1813 2595 c0 -11 4 -12 14 -4 7 6 13 13 13 15 0 2 -6 4 -13 4 -8 0
-14 -7 -14 -15z"/>
<path d="M1280 2584 c0 -4 8 -13 18 -21 9 -8 11 -11 3 -7 -9 5 -12 3 -7 -5 4
-6 12 -9 17 -6 14 10 11 32 -7 39 -20 8 -24 8 -24 0z"/>
<path d="M1260 2570 c13 -8 13 -10 -2 -10 -12 0 -15 -5 -11 -16 5 -14 7 -14
21 -1 15 16 9 37 -11 37 -7 0 -6 -4 3 -10z"/>
<path d="M1863 2563 c0 -16 7 -16 30 1 17 13 16 14 -6 12 -13 0 -24 -7 -24
-13z"/>
<path d="M1500 2550 c0 -5 -9 -10 -21 -10 -22 0 -22 -21 1 -28 7 -3 10 0 6 7
-4 6 -3 11 3 11 5 0 12 -6 14 -12 3 -8 6 -9 6 -2 1 6 12 9 25 7 13 -3 32 0 43
6 12 8 14 11 3 10 -8 -1 -28 3 -43 9 -34 15 -37 15 -37 2z m40 -15 c0 -2 -9
-3 -19 -2 -11 0 -18 5 -15 9 4 6 34 0 34 -7z"/>
<path d="M1660 2522 c0 -6 -15 -16 -32 -21 l-33 -10 32 2 c29 1 52 22 38 35
-3 3 -5 0 -5 -6z"/>
<path d="M1955 2520 c-4 -6 -1 -9 5 -8 19 4 20 -29 3 -44 -9 -7 -19 -12 -22
-10 -3 2 -7 -1 -9 -7 -6 -19 12 -12 41 15 27 25 27 27 11 45 -20 22 -21 22
-29 9z"/>
<path d="M1515 2500 c-4 -6 -10 -8 -15 -5 -4 3 -11 -2 -14 -11 -5 -12 -2 -15
11 -9 10 4 23 8 30 8 7 0 10 4 7 8 -2 4 4 10 13 12 14 4 13 5 -4 6 -12 0 -25
-4 -28 -9z"/>
<path d="M1785 2490 c-13 -6 -15 -9 -5 -9 8 0 22 4 30 9 18 12 2 12 -25 0z"/>
<path d="M1901 2473 c-7 -8 -11 -16 -8 -19 2 -2 10 2 17 11 17 20 9 27 -9 8z"/>
<path d="M2353 1713 c-13 -2 -23 -9 -23 -14 0 -6 37 -9 90 -8 69 1 90 5 90 15
0 11 -16 14 -67 13 -38 -1 -78 -4 -90 -6z"/>
<path d="M2595 1635 c-13 -19 -14 -19 -14 -1 -1 15 -4 16 -16 6 -19 -15 -68
-21 -76 -8 -8 12 -119 1 -119 -12 0 -4 -7 -11 -16 -14 -8 -3 -12 -2 -9 4 3 6
-1 10 -9 10 -8 0 -18 -4 -21 -10 -9 -15 -52 -12 -86 6 -17 8 -32 14 -34 12 -1
-2 0 -23 4 -48 4 -27 9 -39 13 -29 4 11 16 14 39 12 35 -4 192 -3 311 1 37 2
65 0 63 -4 -4 -7 45 -26 88 -34 22 -4 27 -1 27 14 0 13 5 17 15 14 8 -4 15
-17 15 -30 0 -29 26 -32 35 -4 3 10 3 35 0 53 -5 27 -11 34 -25 30 -10 -3 -44
1 -76 7 -55 12 -57 13 -34 25 23 12 22 13 -19 17 -33 3 -44 0 -56 -17z m-128
-11 c-3 -3 -12 -4 -19 -1 -8 3 -5 6 6 6 11 1 17 -2 13 -5z m-229 -33 c3 -8 -1
-12 -9 -9 -7 2 -15 10 -17 17 -3 8 1 12 9 9 7 -2 15 -10 17 -17z"/>
<path d="M2750 1426 c0 -24 18 -28 30 -6 9 17 8 20 -10 20 -11 0 -20 -6 -20
-14z"/>
<path d="M1758 1403 c7 -3 16 -2 19 1 4 3 -2 6 -13 5 -11 0 -14 -3 -6 -6z"/>
<path d="M2768 1363 c5 -21 7 -23 10 -9 2 10 0 22 -6 28 -6 6 -7 0 -4 -19z"/>
<path d="M1595 1330 c3 -5 16 -10 28 -9 21 0 21 1 2 9 -28 12 -37 12 -30 0z"/>
<path d="M2523 1247 c-27 -12 -29 -25 -7 -34 19 -7 37 9 32 30 -2 11 -8 12
-25 4z"/>
<path d="M2376 1231 c-5 -8 0 -18 13 -27 12 -8 21 -22 21 -31 0 -12 3 -13 14
-4 11 9 15 9 18 0 6 -17 112 -24 147 -9 16 6 32 19 36 27 4 13 3 14 -9 4 -8
-7 -45 -13 -83 -14 -75 -2 -126 15 -141 47 -6 15 -11 16 -16 7z"/>
<path d="M2785 1164 c0 -18 -2 -32 -5 -31 -3 1 -15 -4 -27 -11 -23 -13 -32
-52 -12 -52 5 0 8 4 5 9 -3 5 2 12 11 16 10 3 19 1 21 -4 9 -26 22 4 22 49 0
29 5 50 13 53 6 3 3 5 -9 4 -16 -1 -20 -7 -19 -33z"/>
<path d="M2685 1020 c3 -5 8 -10 11 -10 2 0 4 5 4 10 0 6 -5 10 -11 10 -5 0
-7 -4 -4 -10z"/>
<path d="M1635 3160 c-3 -5 -1 -10 4 -10 6 0 11 5 11 10 0 6 -2 10 -4 10 -3 0
-8 -4 -11 -10z"/>
<path d="M1074 2781 c3 -5 -10 -18 -29 -30 -19 -11 -35 -25 -35 -30 0 -13 37
-2 51 15 6 8 17 14 23 14 6 0 12 9 12 20 0 11 -6 20 -14 20 -7 0 -11 -4 -8 -9z"/>
<path d="M956 2724 c-5 -14 -4 -15 9 -4 17 14 19 20 6 20 -5 0 -12 -7 -15 -16z"/>
<path d="M3248 1043 c7 -3 16 -2 19 1 4 3 -2 6 -13 5 -11 0 -14 -3 -6 -6z"/>
<path d="M3323 2133 c-7 -3 -13 -8 -13 -13 0 -11 28 -21 34 -12 7 12 -8 29
-21 25z"/>
<path d="M3280 2019 c0 -5 5 -7 10 -4 6 3 10 8 10 11 0 2 -4 4 -10 4 -5 0 -10
-5 -10 -11z"/>
</g>
</svg>
